<svg width="283" height="205" viewBox="0 0 283 205" fill="none" xmlns="http://www.w3.org/2000/svg">
<path d="M0 52.1622C4.10308 48.9862 8.1482 46.0826 12.1168 43.4268C30.5448 31.0352 50.8636 21.0235 71.2538 15.9526C91.5923 10.6471 112.937 12.4759 132.481 20.6537C171.487 35.156 206.266 76.7875 260.208 68.0428C265.773 66.9999 270.969 65.4828 276.292 63.4155C278.767 62.46 280.739 60.5646 281.763 58.1173C282.787 55.6716 282.779 52.8746 281.753 50.3703C280.727 47.866 278.769 45.868 276.323 44.8447C273.876 43.8198 271.141 43.8534 268.708 44.9094C268.708 44.9094 268.708 44.9094 268.708 44.9094C264.532 46.7234 260.547 48.0663 256.314 49.0429C217.153 58.7641 180.682 23.36 137.501 7.5847C115.822 -0.69678 90.3903 -2.84347 68.022 4.39594C45.4524 11.3839 26.7306 26.1706 10.6212 41.5722C7.15189 44.9141 3.61978 48.4449 0 52.1622Z" fill="url(#paint0_linear_395_449)"/>
<path d="M8 49.6617C12.5884 47.8914 17.0515 46.3473 21.3797 44.9978C37.0416 40.0658 52.8225 36.801 68.6815 35.3971C93.9935 32.8572 118.609 39.2262 140.325 52.1902C174.626 72.8162 211.643 105.357 258.939 103.865C264.15 103.868 268.867 103.623 274.056 103.1C276.432 102.862 278.598 101.689 280.076 99.8139C281.554 97.9404 282.223 95.5186 281.938 93.1057C281.653 90.6928 280.438 88.4935 278.564 87.0161C276.689 85.5373 274.309 84.9016 271.944 85.2242C271.944 85.2242 271.944 85.2242 271.944 85.2242C267.37 85.8432 263.239 86.211 258.697 86.3613C218.137 89.2266 184.542 61.9824 146.587 40.7976C122.977 27.7887 94.2279 21.698 67.5677 26.4663C50.7403 29.1809 35.3009 35.5282 20.5519 42.9692C16.4801 45.0475 12.304 47.2823 8 49.6617Z" fill="url(#paint1_linear_395_449)"/>
<path d="M24 48.6614C28.6292 47.8804 32.8884 47.3167 37.4031 46.8649C78.1074 41.5634 116.764 57.0981 146.654 83.242C176.605 108.533 212.465 137.039 256.24 140.278C261.145 140.784 265.573 141.057 270.5 141.162C272.887 141.216 275.176 140.315 276.864 138.626C278.552 136.939 279.5 134.603 279.5 132.162C279.5 129.721 278.552 127.385 276.864 125.698C275.176 124.009 272.887 123.108 270.5 123.162C270.5 123.162 270.5 123.162 270.5 123.162C266.068 123.257 262.099 123.196 257.715 122.923C218.907 121.627 186.489 98.0209 153.877 73.6589C121.533 48.2696 76.8633 36.1731 37.2236 45.642C32.7417 46.5162 28.5459 47.4892 24 48.6614Z" fill="url(#paint2_linear_395_449)"/>
<path d="M9.5 52.6624C14.5807 52.0073 19.2843 51.5885 24.2138 51.3369C68.9268 47.6751 110.319 69.2816 139.852 101.046C169.647 130.7 201.092 173.376 253.11 174.784C258.647 175.009 263.773 174.857 269.308 174.337C272.083 174.085 274.606 172.738 276.314 170.537C278.023 168.339 278.777 165.468 278.418 162.61C278.059 159.752 276.618 157.157 274.419 155.45C272.22 153.74 269.443 153.058 266.692 153.5C266.692 153.5 266.692 153.5 266.692 153.5C262.094 154.24 257.882 154.664 253.353 154.781C212.315 157.242 180.327 122.17 147.351 92.9978C114.802 62.3446 68.3552 42.8948 24.1169 50.2364C19.1896 50.859 14.5208 51.6456 9.5 52.6624Z" fill="url(#paint3_linear_395_449)"/>
<path d="M19 53.1621C24.0952 53.3841 28.7677 53.8811 33.7348 54.7118C78.7074 61.7529 108.74 97.4025 136.983 130.66C164.816 163.417 199.931 202.673 250.301 204.554C255.769 204.846 260.83 204.782 266.3 204.383C268.682 204.212 270.88 203.099 272.411 201.267C273.943 199.437 274.68 197.037 274.464 194.619C274.248 192.2 273.097 189.969 271.266 188.439C269.435 186.907 267.073 186.202 264.7 186.455C264.7 186.455 264.7 186.455 264.7 186.455C259.986 186.954 255.661 187.154 251.012 187.049C209.125 187.103 176.405 153.941 146.632 121.948C117.01 90.0576 79.8191 55.7889 33.8974 53.3696C28.8169 52.9948 24.0956 52.9509 19 53.1621Z" fill="url(#paint4_linear_395_449)"/>
<defs>
<linearGradient id="paint0_linear_395_449" x1="14.9997" y1="1.66353" x2="277.5" y2="58.6626" gradientUnits="userSpaceOnUse">
<stop stop-color="#7C7B7B"/>
<stop offset="0.131098" stop-color="#999999"/>
</linearGradient>
<linearGradient id="paint1_linear_395_449" x1="16.5004" y1="44.6605" x2="280" y2="98.6615" gradientUnits="userSpaceOnUse">
<stop stop-color="#444444"/>
<stop offset="0.408937" stop-color="#999999"/>
</linearGradient>
<linearGradient id="paint2_linear_395_449" x1="23.9998" y1="46.6626" x2="281" y2="133.663" gradientUnits="userSpaceOnUse">
<stop offset="0.125" stop-color="#444444"/>
<stop offset="0.576923" stop-color="#999999"/>
</linearGradient>
<linearGradient id="paint3_linear_395_449" x1="28" y1="174.025" x2="304.5" y2="174.025" gradientUnits="userSpaceOnUse">
<stop offset="0.182692" stop-color="#444444"/>
<stop offset="0.581731" stop-color="#999999"/>
</linearGradient>
<linearGradient id="paint4_linear_395_449" x1="28" y1="201.784" x2="304.5" y2="201.784" gradientUnits="userSpaceOnUse">
<stop offset="0.344995" stop-color="#444444"/>
<stop offset="0.865385" stop-color="#999999"/>
</linearGradient>
</defs>
</svg>
