<svg width="542" height="715" viewBox="0 0 542 715" fill="none" xmlns="http://www.w3.org/2000/svg">
<path d="M143.765 679V579.779H166.727V660.29H216.48V679H143.765ZM216.961 679L261.186 579.779H283.865L328.231 679H304.134L267.848 591.402H276.919L240.491 679H216.961ZM239.074 657.738L245.169 640.304H296.197L302.433 657.738H239.074ZM354.095 679V598.489H322.344V579.779H408.808V598.489H377.057V679H354.095Z" fill="white"/>
<path d="M188.552 488.218L43.2402 406.173V135.091L188.551 50.5986L188.552 488.218Z" fill="#FF2525" stroke="black"/>
<path d="M343.083 44.6777V496.998L270.431 536.999L199.416 497.002V44.6758L270.839 3.4541L343.083 44.6777Z" fill="#FF2525" stroke="black"/>
<path d="M498.437 137.968V406.994L353.947 487.811V53.8877L498.437 137.968Z" fill="#FF2525" stroke="black"/>
<path d="M260.484 9.77539C266.893 6.0757 274.788 6.07563 281.196 9.77539L491.751 131.339C498.159 135.039 502.106 141.877 502.106 149.276V392.404C502.106 399.804 498.159 406.641 491.751 410.341L281.196 531.905C274.788 535.605 266.893 535.605 260.484 531.905L49.9297 410.341C43.5215 406.641 39.5734 399.804 39.5732 392.404V149.276C39.5733 141.877 43.5214 135.039 49.9297 131.339L260.484 9.77539Z" stroke="black" stroke-width="6.57579"/>
<path d="M221.109 408.837H321.38" stroke="white" stroke-width="5.25764" stroke-linecap="round" stroke-linejoin="round"/>
<path d="M228.244 384.163C228.244 373.351 236.948 364.587 247.686 364.587H292.422C303.852 364.587 313.118 373.917 313.118 385.426V388.163C313.118 399.788 303.758 409.212 292.213 409.212H249.149C237.604 409.212 228.244 399.788 228.244 388.163V384.163Z" fill="white"/>
<path d="M228.244 391.11H313.118V409.212H228.244V391.11Z" fill="white"/>
<path d="M248.731 343.116H291.795V364.587H248.731V343.116Z" fill="white"/>
<path d="M267.361 100.133C276.698 109.163 310.045 144.077 302.152 174.383C293.077 209.234 295.445 214.472 303.665 215.296C303.665 215.296 311.229 218.326 315.767 206.204C320.288 194.127 320.305 183.553 320.305 183.475C336.944 206.204 342.659 225.213 344.508 254.693C344.508 298.637 308.204 327.428 271.899 327.428C249.209 330.458 197.777 311.733 197.777 254.693C200.803 203.173 253.747 175.898 267.361 100.133ZM271.844 212.203C251.905 243.524 237.381 263.254 235.904 282.983C235.905 302.597 252.513 318.496 272.09 318.496C291.666 318.496 307.536 302.597 307.536 282.983C306.305 263.994 292.521 245.003 271.844 212.203Z" fill="white"/>
<path d="M275.962 277.829C281.735 281.095 286.331 284.96 289.115 288.506C290.509 290.283 291.393 291.909 291.785 293.279C292.175 294.641 292.043 295.602 291.65 296.266C291.257 296.93 290.471 297.521 289.067 297.869C287.657 298.219 285.774 298.28 283.504 297.982C278.972 297.389 273.255 295.418 267.482 292.152C261.708 288.885 257.112 285.02 254.328 281.474C252.934 279.697 252.05 278.071 251.658 276.702C251.268 275.339 251.401 274.377 251.794 273.713C252.187 273.05 252.973 272.459 254.376 272.111C255.787 271.761 257.669 271.7 259.939 271.997C264.471 272.591 270.189 274.562 275.962 277.829Z" stroke="white" stroke-width="3.46608"/>
<path d="M280.215 284.95C280.248 291.462 279.159 297.282 277.439 301.411C276.578 303.479 275.592 305.042 274.582 306.064C273.579 307.078 272.651 307.468 271.834 307.472C271.017 307.475 270.086 307.095 269.073 306.09C268.053 305.079 267.051 303.525 266.169 301.466C264.408 297.353 263.26 291.544 263.227 285.032C263.194 278.52 264.283 272.701 266.003 268.571C266.865 266.503 267.851 264.939 268.861 263.918C269.864 262.904 270.791 262.515 271.607 262.511C272.424 262.507 273.356 262.887 274.369 263.891C275.39 264.903 276.391 266.457 277.274 268.517C279.035 272.63 280.182 278.439 280.215 284.95Z" stroke="white" stroke-width="3.46608"/>
<path d="M275.932 292.165C270.146 295.41 264.42 297.359 259.886 297.936C257.615 298.224 255.733 298.157 254.324 297.801C252.922 297.448 252.138 296.854 251.747 296.189C251.357 295.524 251.229 294.563 251.624 293.201C252.021 291.833 252.912 290.211 254.313 288.439C257.111 284.904 261.722 281.056 267.508 277.811C273.294 274.565 279.02 272.616 283.554 272.04C285.825 271.751 287.706 271.818 289.115 272.174C290.517 272.527 291.301 273.121 291.692 273.786C292.082 274.451 292.21 275.412 291.815 276.774C291.418 278.142 290.528 279.765 289.127 281.536C286.33 285.071 281.718 288.919 275.932 292.165Z" stroke="white" stroke-width="3.46608"/>
<circle cx="271.721" cy="284.991" r="4.62144" fill="white"/>
<path d="M413.515 402.851C412.415 402.851 411.523 401.959 411.523 400.859V384.11C411.523 383.009 410.631 382.118 409.531 382.118H393.724C392.624 382.118 391.732 381.226 391.732 380.126V349.241C391.732 348.14 392.624 347.248 393.724 347.248H457.594C458.694 347.248 459.586 348.14 459.586 349.241V380.126C459.586 381.226 458.694 382.118 457.594 382.118H441.316C440.216 382.118 439.324 383.009 439.324 384.11V400.859C439.324 401.959 438.432 402.851 437.332 402.851H413.515Z" fill="white"/>
<path d="M380.422 347.248H391.26M470.422 347.248H460.527M460.527 347.248H432.254M460.527 347.248V314.264M447.333 198.348V233.688C447.333 233.688 452.516 234.63 455.815 236.515C459.113 238.4 460.527 242.17 460.527 242.17V291.41M447.333 198.348C440.736 190.808 414.349 187.039 404.453 198.348M447.333 198.348C435.553 203.531 417.647 203.06 404.453 198.348M404.453 198.348V233.688C404.453 233.688 399.741 234.159 395.5 236.986C391.26 239.813 391.26 242.17 391.26 242.17V347.248M391.26 347.248H419.532M419.532 347.248V326.986L409.165 323.217V268.557H442.621V291.41M419.532 347.248H432.254M432.254 347.248V326.986L442.621 323.217V314.264M442.621 314.264H460.527M442.621 314.264V291.41M460.527 314.264V291.41M442.621 291.41H460.527" stroke="white" stroke-width="4.64809" stroke-linecap="round" stroke-linejoin="round"/>
<path d="M68.9072 278.56H159.381C160.199 278.56 160.861 279.223 160.861 280.041V397.629C160.861 398.447 160.199 399.109 159.381 399.109H78.9717C78.1538 399.109 77.4904 398.447 77.4902 397.629V303.54C77.4902 302.56 77.2768 301.592 76.8643 300.703L67.5635 280.664C67.108 279.682 67.825 278.56 68.9072 278.56Z" stroke="white" stroke-width="5.25764"/>
<path d="M118.397 230.154C124.092 239.539 127.889 244.973 128.228 250.406C128.227 256.018 123.857 260.567 118.466 260.567C113.074 260.567 108.5 256.018 108.5 250.406C108.907 244.761 112.906 239.116 118.397 230.154ZM111.787 249.47C111.106 249.47 110.554 250.022 110.554 250.703V250.71C110.554 250.713 110.555 250.717 110.555 250.721C110.555 250.729 110.554 250.739 110.555 250.751C110.555 250.775 110.556 250.806 110.558 250.845C110.561 250.922 110.567 251.029 110.578 251.161C110.601 251.425 110.645 251.793 110.732 252.229C110.906 253.098 111.255 254.268 111.963 255.447C112.539 256.407 113.585 257.153 114.325 257.61C114.721 257.855 115.086 258.051 115.353 258.187C115.486 258.254 115.596 258.308 115.675 258.345C115.714 258.363 115.746 258.377 115.769 258.388C115.78 258.393 115.789 258.397 115.796 258.4C115.799 258.402 115.802 258.403 115.804 258.404C115.805 258.405 115.806 258.405 115.807 258.405L115.809 258.406L115.927 258.451C116.521 258.645 117.177 258.362 117.436 257.778C117.711 257.156 117.43 256.427 116.808 256.151H116.806L116.792 256.145C116.778 256.138 116.756 256.128 116.727 256.114C116.667 256.086 116.578 256.043 116.468 255.987C116.247 255.875 115.945 255.713 115.622 255.514C114.925 255.082 114.327 254.595 114.077 254.179C113.552 253.304 113.285 252.419 113.15 251.746C113.084 251.412 113.051 251.137 113.035 250.951C113.027 250.859 113.023 250.789 113.021 250.746C113.021 250.725 113.021 250.711 113.021 250.703C113.021 250.022 112.468 249.47 111.787 249.47Z" fill="white"/>
<path d="M159.69 166.755C160.551 165.859 161.974 165.83 162.871 166.688L174.228 177.555C175.138 178.426 175.158 179.873 174.272 180.768L149.136 206.164C148.829 206.474 148.439 206.688 148.014 206.781L133.457 209.947C133.048 210.036 132.671 210.237 132.37 210.529L129.058 213.731L128.903 213.844C127.735 214.694 126.276 213.254 127.11 212.075C127.152 212.016 127.199 211.961 127.25 211.909L129.344 209.815C129.654 209.505 129.867 209.111 129.956 208.681L132.75 195.268C132.836 194.853 133.038 194.471 133.332 194.165L159.69 166.755Z" fill="white"/>
<path d="M137.953 331.512L161.237 239.503" stroke="white" stroke-width="5.25764" stroke-linecap="round" stroke-linejoin="round"/>
<path d="M154.53 321.393C155.892 321.393 156.996 322.497 156.996 323.858V392.904C156.996 394.266 155.892 395.37 154.53 395.37H83.8408C82.479 395.37 81.375 394.266 81.375 392.904V323.858C81.3751 322.497 82.479 321.393 83.8408 321.393H143.137L139.926 333.068C139.541 334.468 140.364 335.915 141.764 336.3C143.164 336.685 144.611 335.862 144.996 334.462L148.59 321.393H154.53Z" fill="white"/>
<path d="M189 135.84L131.814 194.042L129.317 207.6C129.22 208.123 128.967 208.606 128.59 208.982L122.093 215.479L125.272 218.835L132.802 211.306L132.948 211.171C133.298 210.87 133.723 210.665 134.18 210.58L149.588 207.713L189 166.839V174.413L152.79 211.969C152.41 212.363 151.916 212.628 151.377 212.729L135.943 215.6L127.081 224.463C126.579 224.964 125.895 225.242 125.186 225.232C124.477 225.223 123.801 224.927 123.313 224.412L116.517 217.238C115.538 216.204 115.56 214.578 116.567 213.571L124.294 205.843L126.79 192.299C126.885 191.783 127.132 191.307 127.5 190.933L189 128.337V135.84Z" fill="white"/>
</svg>
