<svg width="464" height="158" viewBox="0 0 464 158" fill="none" xmlns="http://www.w3.org/2000/svg">
<path d="M185 40.1246C185 40.1246 185 40.1246 185 40.1246C188.156 37.6815 191.268 35.448 194.321 33.4051C208.496 23.8731 224.126 16.1718 239.811 12.2711C255.456 8.1899 271.875 9.59671 286.908 15.8873C316.913 27.0429 343.666 59.0672 385.16 52.3405C389.441 51.5382 393.438 50.3713 397.532 48.781C399.436 48.046 400.953 46.588 401.741 44.7054C402.529 42.8242 402.523 40.6726 401.733 38.7462C400.944 36.8198 399.438 35.2829 397.556 34.4958C395.674 33.7074 393.57 33.7333 391.698 34.5456C391.698 34.5456 391.698 34.5456 391.698 34.5456C388.486 35.941 385.421 36.974 382.165 37.7252C352.041 45.203 323.986 17.969 290.77 5.83422C274.094 -0.536147 254.531 -2.18743 237.325 3.38134C219.963 8.7567 205.562 20.1311 193.17 31.9784C190.501 34.5492 187.784 37.2652 185 40.1246Z" fill="url(#paint0_linear_395_490)"/>
<path d="M191.154 38.2004C191.154 38.2004 191.154 38.2004 191.154 38.2004C194.683 36.8386 198.116 35.6509 201.446 34.6128C213.493 30.819 225.633 28.3076 237.832 27.2276C257.303 25.2738 276.238 30.1731 292.942 40.1454C319.328 56.0116 347.802 81.0432 384.184 79.8954C388.192 79.8976 391.821 79.709 395.812 79.3066C397.64 79.1238 399.306 78.2213 400.443 76.7791C401.58 75.3379 402.095 73.4749 401.875 71.6188C401.656 69.7628 400.721 68.071 399.28 66.9346C397.838 65.7971 396.007 65.308 394.187 65.5561C394.187 65.5561 394.187 65.5561 394.187 65.5561C390.669 66.0323 387.492 66.3152 383.997 66.4309C352.798 68.635 326.955 47.6779 297.759 31.3819C279.598 21.375 257.483 16.6899 236.975 20.3578C224.031 22.446 212.155 27.3285 200.809 33.0523C197.677 34.651 194.465 36.3701 191.154 38.2004Z" fill="url(#paint1_linear_395_490)"/>
<path d="M203.461 37.4318C207.022 36.831 210.299 36.3974 213.772 36.0499C245.083 31.9717 274.818 43.9215 297.811 64.0322C320.85 83.4866 348.435 105.414 382.108 107.906C385.881 108.295 389.287 108.505 393.077 108.586C394.913 108.628 396.674 107.934 397.972 106.635C399.271 105.338 400 103.541 400 101.663C400 99.7855 399.27 97.9883 397.972 96.6906C396.674 95.3916 394.913 94.6985 393.077 94.7399C393.077 94.7399 393.077 94.7399 393.077 94.7399C389.668 94.8134 386.614 94.7658 383.242 94.5558C353.39 93.5591 328.453 75.4006 303.367 56.6606C278.487 37.1304 244.126 27.8254 213.633 35.1092C210.186 35.7816 206.958 36.5301 203.461 37.4318Z" fill="url(#paint2_linear_395_490)"/>
<path d="M192.308 40.5091C192.308 40.5091 192.308 40.5091 192.308 40.5091C196.216 40.0052 199.834 39.683 203.626 39.4895C238.021 36.6727 269.861 53.2931 292.578 77.7268C315.498 100.538 339.686 133.366 379.7 134.448C383.959 134.622 387.902 134.505 392.16 134.105C394.295 133.911 396.235 132.875 397.549 131.182C398.864 129.491 399.444 127.283 399.168 125.084C398.892 122.886 397.783 120.889 396.092 119.576C394.4 118.261 392.264 117.737 390.147 118.077C390.147 118.077 390.147 118.077 390.147 118.077C386.611 118.646 383.371 118.972 379.887 119.062C348.319 120.955 323.713 93.9767 298.346 71.5363C273.309 47.9569 237.581 32.9955 203.551 38.643C199.761 39.1218 196.17 39.727 192.308 40.5091Z" fill="url(#paint3_linear_395_490)"/>
<path d="M199.615 40.8936C203.535 41.0643 207.129 41.4466 210.95 42.0856C245.544 47.5019 268.646 74.9246 290.371 100.508C311.781 125.705 338.793 155.902 377.539 157.349C381.745 157.574 385.638 157.524 389.846 157.218C391.678 157.086 393.369 156.23 394.547 154.821C395.725 153.413 396.292 151.566 396.126 149.706C395.96 147.846 395.075 146.13 393.666 144.952C392.257 143.774 390.441 143.232 388.615 143.426C388.615 143.426 388.615 143.426 388.615 143.426C384.989 143.81 381.662 143.964 378.086 143.883C345.865 143.925 320.696 118.416 297.793 93.806C275.008 69.2747 246.399 42.9142 211.075 41.0531C207.167 40.7649 203.535 40.731 199.615 40.8936Z" fill="url(#paint4_linear_395_490)"/>
<mask id="path-6-outside-1_395_490" maskUnits="userSpaceOnUse" x="4" y="31.2129" width="457" height="75" fill="black">
<rect fill="white" x="4" y="31.2129" width="457" height="75"/>
<path d="M6.912 103.213V35.7249H19.968V103.213H6.912ZM16.512 103.213V91.5969H50.88V103.213H16.512ZM77.085 104.173C72.861 104.173 69.053 103.117 65.661 101.005C62.269 98.8929 59.613 96.0129 57.693 92.3649C55.773 88.7169 54.813 84.6209 54.813 80.0769C54.813 75.4689 55.773 71.3409 57.693 67.6929C59.613 64.0449 62.269 61.1649 65.661 59.0529C69.053 56.9409 72.861 55.8849 77.085 55.8849C80.413 55.8849 83.389 56.5569 86.013 57.9009C88.637 59.2449 90.717 61.1329 92.253 63.5649C93.853 65.9329 94.717 68.6209 94.845 71.6289V88.3329C94.717 91.4049 93.853 94.1249 92.253 96.4929C90.717 98.8609 88.637 100.749 86.013 102.157C83.389 103.501 80.413 104.173 77.085 104.173ZM79.389 92.5569C82.909 92.5569 85.757 91.4049 87.933 89.1009C90.109 86.7329 91.197 83.6929 91.197 79.9809C91.197 77.5489 90.685 75.4049 89.661 73.5489C88.701 71.6289 87.325 70.1569 85.533 69.1329C83.805 68.0449 81.757 67.5009 79.389 67.5009C77.085 67.5009 75.037 68.0449 73.245 69.1329C71.517 70.1569 70.141 71.6289 69.117 73.5489C68.157 75.4049 67.677 77.5489 67.677 79.9809C67.677 82.4769 68.157 84.6849 69.117 86.6049C70.141 88.4609 71.517 89.9329 73.245 91.0209C75.037 92.0449 77.085 92.5569 79.389 92.5569ZM90.525 103.213V90.7329L92.541 79.4049L90.525 68.2689V56.8449H103.005V103.213H90.525ZM139.859 104.173C136.531 104.173 133.523 103.469 130.835 102.061C128.147 100.653 126.003 98.7329 124.403 96.3009C122.803 93.8689 121.939 91.1489 121.811 88.1409V71.6289C121.939 68.6209 122.803 65.9329 124.403 63.5649C126.067 61.1329 128.243 59.2449 130.931 57.9009C133.619 56.5569 136.595 55.8849 139.859 55.8849C144.147 55.8849 147.987 56.9409 151.379 59.0529C154.771 61.1649 157.427 64.0449 159.347 67.6929C161.331 71.3409 162.323 75.4689 162.323 80.0769C162.323 84.6209 161.331 88.7169 159.347 92.3649C157.427 96.0129 154.771 98.8929 151.379 101.005C147.987 103.117 144.147 104.173 139.859 104.173ZM114.131 103.213V33.8049H126.707V68.2689L124.595 79.4049L126.611 90.7329V103.213H114.131ZM137.747 92.5569C140.051 92.5569 142.067 92.0449 143.795 91.0209C145.587 89.9329 146.963 88.4609 147.923 86.6049C148.947 84.6849 149.459 82.4769 149.459 79.9809C149.459 77.5489 148.947 75.4049 147.923 73.5489C146.963 71.6289 145.587 70.1569 143.795 69.1329C142.003 68.0449 139.955 67.5009 137.651 67.5009C135.347 67.5009 133.299 68.0449 131.507 69.1329C129.779 70.1569 128.403 71.6289 127.379 73.5489C126.419 75.4049 125.939 77.5489 125.939 79.9809C125.939 82.4769 126.419 84.6849 127.379 86.6049C128.403 88.4609 129.811 89.9329 131.603 91.0209C133.395 92.0449 135.443 92.5569 137.747 92.5569ZM203.208 104.173C198.28 104.173 193.704 103.309 189.48 101.581C185.256 99.7889 181.544 97.3249 178.344 94.1889C175.208 90.9889 172.776 87.2769 171.048 83.0529C169.384 78.8289 168.552 74.2849 168.552 69.4209C168.552 64.5569 169.384 60.0129 171.048 55.7889C172.776 51.5649 175.208 47.8849 178.344 44.7489C181.544 41.6129 185.224 39.1489 189.384 37.3569C193.608 35.5649 198.216 34.6689 203.208 34.6689C208.584 34.6689 213.32 35.5649 217.416 37.3569C221.512 39.0849 225.128 41.4849 228.264 44.5569L219.432 53.3889C217.576 51.3409 215.304 49.7409 212.616 48.5889C209.928 47.4369 206.792 46.8609 203.208 46.8609C200.072 46.8609 197.192 47.4049 194.568 48.4929C192.008 49.5169 189.768 51.0529 187.848 53.1009C185.928 55.0849 184.456 57.4849 183.432 60.3009C182.408 63.0529 181.896 66.0929 181.896 69.4209C181.896 72.8129 182.408 75.8849 183.432 78.6369C184.456 81.3889 185.928 83.7889 187.848 85.8369C189.768 87.8209 192.008 89.3569 194.568 90.4449C197.192 91.5329 200.072 92.0769 203.208 92.0769C206.984 92.0769 210.216 91.5009 212.904 90.3489C215.656 89.1969 217.96 87.5649 219.816 85.4529L228.648 94.2849C225.512 97.4209 221.864 99.8529 217.704 101.581C213.544 103.309 208.712 104.173 203.208 104.173ZM236.381 103.213V56.8449H248.957V103.213H236.381ZM248.957 77.5809L244.061 74.3169C244.637 68.6209 246.301 64.1409 249.053 60.8769C251.805 57.5489 255.773 55.8849 260.957 55.8849C263.197 55.8849 265.213 56.2689 267.005 57.0369C268.797 57.7409 270.429 58.9249 271.901 60.5889L264.029 69.6129C263.325 68.8449 262.461 68.2689 261.437 67.8849C260.477 67.5009 259.357 67.3089 258.077 67.3089C255.389 67.3089 253.181 68.1729 251.453 69.9009C249.789 71.5649 248.957 74.1249 248.957 77.5809ZM296.798 104.173C292.126 104.173 287.902 103.117 284.126 101.005C280.414 98.8289 277.438 95.9169 275.198 92.2689C273.022 88.5569 271.934 84.4289 271.934 79.8849C271.934 75.3409 273.022 71.2769 275.198 67.6929C277.374 64.0449 280.35 61.1649 284.126 59.0529C287.902 56.8769 292.094 55.7889 296.702 55.7889C301.438 55.7889 305.662 56.8769 309.374 59.0529C313.15 61.1649 316.126 64.0449 318.302 67.6929C320.478 71.2769 321.566 75.3409 321.566 79.8849C321.566 84.4289 320.478 88.5569 318.302 92.2689C316.126 95.9169 313.15 98.8289 309.374 101.005C305.662 103.117 301.47 104.173 296.798 104.173ZM296.702 92.4609C299.07 92.4609 301.15 91.9489 302.942 90.9249C304.798 89.8369 306.206 88.3649 307.166 86.5089C308.19 84.5889 308.702 82.4129 308.702 79.9809C308.702 77.5489 308.19 75.4049 307.166 73.5489C306.142 71.6929 304.734 70.2529 302.942 69.2289C301.15 68.1409 299.07 67.5969 296.702 67.5969C294.398 67.5969 292.35 68.1409 290.558 69.2289C288.766 70.2529 287.358 71.6929 286.334 73.5489C285.31 75.4049 284.798 77.5489 284.798 79.9809C284.798 82.4129 285.31 84.5889 286.334 86.5089C287.358 88.3649 288.766 89.8369 290.558 90.9249C292.35 91.9489 294.398 92.4609 296.702 92.4609ZM329.662 103.213V56.8449H342.238V103.213H329.662ZM359.902 103.213V75.8529C359.902 73.1649 359.038 71.0849 357.31 69.6129C355.646 68.0769 353.566 67.3089 351.07 67.3089C349.406 67.3089 347.902 67.6609 346.558 68.3649C345.214 69.0049 344.158 69.9649 343.39 71.2449C342.622 72.5249 342.238 74.0609 342.238 75.8529L337.342 73.4529C337.342 69.8689 338.11 66.7649 339.646 64.1409C341.246 61.5169 343.39 59.5009 346.078 58.0929C348.766 56.6209 351.806 55.8849 355.198 55.8849C358.398 55.8849 361.31 56.6209 363.934 58.0929C366.558 59.5009 368.638 61.5169 370.174 64.1409C371.71 66.7009 372.478 69.8049 372.478 73.4529V103.213H359.902ZM390.142 103.213V75.8529C390.142 73.1649 389.278 71.0849 387.55 69.6129C385.886 68.0769 383.806 67.3089 381.31 67.3089C379.71 67.3089 378.206 67.6609 376.798 68.3649C375.454 69.0049 374.398 69.9649 373.63 71.2449C372.862 72.5249 372.478 74.0609 372.478 75.8529L365.278 74.1249C365.534 70.4129 366.526 67.2129 368.254 64.5249C369.982 61.7729 372.254 59.6609 375.07 58.1889C377.886 56.6529 381.022 55.8849 384.478 55.8849C387.934 55.8849 391.038 56.6209 393.79 58.0929C396.542 59.5009 398.718 61.5489 400.318 64.2369C401.918 66.9249 402.718 70.1249 402.718 73.8369V103.213H390.142ZM432.304 104.173C428.08 104.173 424.272 103.117 420.88 101.005C417.488 98.8929 414.832 96.0129 412.912 92.3649C410.992 88.7169 410.032 84.6209 410.032 80.0769C410.032 75.4689 410.992 71.3409 412.912 67.6929C414.832 64.0449 417.488 61.1649 420.88 59.0529C424.272 56.9409 428.08 55.8849 432.304 55.8849C435.632 55.8849 438.608 56.5569 441.232 57.9009C443.856 59.2449 445.936 61.1329 447.472 63.5649C449.072 65.9329 449.936 68.6209 450.064 71.6289V88.3329C449.936 91.4049 449.072 94.1249 447.472 96.4929C445.936 98.8609 443.856 100.749 441.232 102.157C438.608 103.501 435.632 104.173 432.304 104.173ZM434.608 92.5569C438.128 92.5569 440.976 91.4049 443.152 89.1009C445.328 86.7329 446.416 83.6929 446.416 79.9809C446.416 77.5489 445.904 75.4049 444.88 73.5489C443.92 71.6289 442.544 70.1569 440.752 69.1329C439.024 68.0449 436.976 67.5009 434.608 67.5009C432.304 67.5009 430.256 68.0449 428.464 69.1329C426.736 70.1569 425.36 71.6289 424.336 73.5489C423.376 75.4049 422.896 77.5489 422.896 79.9809C422.896 82.4769 423.376 84.6849 424.336 86.6049C425.36 88.4609 426.736 89.9329 428.464 91.0209C430.256 92.0449 432.304 92.5569 434.608 92.5569ZM445.744 103.213V90.7329L447.76 79.4049L445.744 68.2689V56.8449H458.224V103.213H445.744Z"/>
</mask>
<path d="M6.912 103.213V35.7249H19.968V103.213H6.912ZM16.512 103.213V91.5969H50.88V103.213H16.512ZM77.085 104.173C72.861 104.173 69.053 103.117 65.661 101.005C62.269 98.8929 59.613 96.0129 57.693 92.3649C55.773 88.7169 54.813 84.6209 54.813 80.0769C54.813 75.4689 55.773 71.3409 57.693 67.6929C59.613 64.0449 62.269 61.1649 65.661 59.0529C69.053 56.9409 72.861 55.8849 77.085 55.8849C80.413 55.8849 83.389 56.5569 86.013 57.9009C88.637 59.2449 90.717 61.1329 92.253 63.5649C93.853 65.9329 94.717 68.6209 94.845 71.6289V88.3329C94.717 91.4049 93.853 94.1249 92.253 96.4929C90.717 98.8609 88.637 100.749 86.013 102.157C83.389 103.501 80.413 104.173 77.085 104.173ZM79.389 92.5569C82.909 92.5569 85.757 91.4049 87.933 89.1009C90.109 86.7329 91.197 83.6929 91.197 79.9809C91.197 77.5489 90.685 75.4049 89.661 73.5489C88.701 71.6289 87.325 70.1569 85.533 69.1329C83.805 68.0449 81.757 67.5009 79.389 67.5009C77.085 67.5009 75.037 68.0449 73.245 69.1329C71.517 70.1569 70.141 71.6289 69.117 73.5489C68.157 75.4049 67.677 77.5489 67.677 79.9809C67.677 82.4769 68.157 84.6849 69.117 86.6049C70.141 88.4609 71.517 89.9329 73.245 91.0209C75.037 92.0449 77.085 92.5569 79.389 92.5569ZM90.525 103.213V90.7329L92.541 79.4049L90.525 68.2689V56.8449H103.005V103.213H90.525ZM139.859 104.173C136.531 104.173 133.523 103.469 130.835 102.061C128.147 100.653 126.003 98.7329 124.403 96.3009C122.803 93.8689 121.939 91.1489 121.811 88.1409V71.6289C121.939 68.6209 122.803 65.9329 124.403 63.5649C126.067 61.1329 128.243 59.2449 130.931 57.9009C133.619 56.5569 136.595 55.8849 139.859 55.8849C144.147 55.8849 147.987 56.9409 151.379 59.0529C154.771 61.1649 157.427 64.0449 159.347 67.6929C161.331 71.3409 162.323 75.4689 162.323 80.0769C162.323 84.6209 161.331 88.7169 159.347 92.3649C157.427 96.0129 154.771 98.8929 151.379 101.005C147.987 103.117 144.147 104.173 139.859 104.173ZM114.131 103.213V33.8049H126.707V68.2689L124.595 79.4049L126.611 90.7329V103.213H114.131ZM137.747 92.5569C140.051 92.5569 142.067 92.0449 143.795 91.0209C145.587 89.9329 146.963 88.4609 147.923 86.6049C148.947 84.6849 149.459 82.4769 149.459 79.9809C149.459 77.5489 148.947 75.4049 147.923 73.5489C146.963 71.6289 145.587 70.1569 143.795 69.1329C142.003 68.0449 139.955 67.5009 137.651 67.5009C135.347 67.5009 133.299 68.0449 131.507 69.1329C129.779 70.1569 128.403 71.6289 127.379 73.5489C126.419 75.4049 125.939 77.5489 125.939 79.9809C125.939 82.4769 126.419 84.6849 127.379 86.6049C128.403 88.4609 129.811 89.9329 131.603 91.0209C133.395 92.0449 135.443 92.5569 137.747 92.5569ZM203.208 104.173C198.28 104.173 193.704 103.309 189.48 101.581C185.256 99.7889 181.544 97.3249 178.344 94.1889C175.208 90.9889 172.776 87.2769 171.048 83.0529C169.384 78.8289 168.552 74.2849 168.552 69.4209C168.552 64.5569 169.384 60.0129 171.048 55.7889C172.776 51.5649 175.208 47.8849 178.344 44.7489C181.544 41.6129 185.224 39.1489 189.384 37.3569C193.608 35.5649 198.216 34.6689 203.208 34.6689C208.584 34.6689 213.32 35.5649 217.416 37.3569C221.512 39.0849 225.128 41.4849 228.264 44.5569L219.432 53.3889C217.576 51.3409 215.304 49.7409 212.616 48.5889C209.928 47.4369 206.792 46.8609 203.208 46.8609C200.072 46.8609 197.192 47.4049 194.568 48.4929C192.008 49.5169 189.768 51.0529 187.848 53.1009C185.928 55.0849 184.456 57.4849 183.432 60.3009C182.408 63.0529 181.896 66.0929 181.896 69.4209C181.896 72.8129 182.408 75.8849 183.432 78.6369C184.456 81.3889 185.928 83.7889 187.848 85.8369C189.768 87.8209 192.008 89.3569 194.568 90.4449C197.192 91.5329 200.072 92.0769 203.208 92.0769C206.984 92.0769 210.216 91.5009 212.904 90.3489C215.656 89.1969 217.96 87.5649 219.816 85.4529L228.648 94.2849C225.512 97.4209 221.864 99.8529 217.704 101.581C213.544 103.309 208.712 104.173 203.208 104.173ZM236.381 103.213V56.8449H248.957V103.213H236.381ZM248.957 77.5809L244.061 74.3169C244.637 68.6209 246.301 64.1409 249.053 60.8769C251.805 57.5489 255.773 55.8849 260.957 55.8849C263.197 55.8849 265.213 56.2689 267.005 57.0369C268.797 57.7409 270.429 58.9249 271.901 60.5889L264.029 69.6129C263.325 68.8449 262.461 68.2689 261.437 67.8849C260.477 67.5009 259.357 67.3089 258.077 67.3089C255.389 67.3089 253.181 68.1729 251.453 69.9009C249.789 71.5649 248.957 74.1249 248.957 77.5809ZM296.798 104.173C292.126 104.173 287.902 103.117 284.126 101.005C280.414 98.8289 277.438 95.9169 275.198 92.2689C273.022 88.5569 271.934 84.4289 271.934 79.8849C271.934 75.3409 273.022 71.2769 275.198 67.6929C277.374 64.0449 280.35 61.1649 284.126 59.0529C287.902 56.8769 292.094 55.7889 296.702 55.7889C301.438 55.7889 305.662 56.8769 309.374 59.0529C313.15 61.1649 316.126 64.0449 318.302 67.6929C320.478 71.2769 321.566 75.3409 321.566 79.8849C321.566 84.4289 320.478 88.5569 318.302 92.2689C316.126 95.9169 313.15 98.8289 309.374 101.005C305.662 103.117 301.47 104.173 296.798 104.173ZM296.702 92.4609C299.07 92.4609 301.15 91.9489 302.942 90.9249C304.798 89.8369 306.206 88.3649 307.166 86.5089C308.19 84.5889 308.702 82.4129 308.702 79.9809C308.702 77.5489 308.19 75.4049 307.166 73.5489C306.142 71.6929 304.734 70.2529 302.942 69.2289C301.15 68.1409 299.07 67.5969 296.702 67.5969C294.398 67.5969 292.35 68.1409 290.558 69.2289C288.766 70.2529 287.358 71.6929 286.334 73.5489C285.31 75.4049 284.798 77.5489 284.798 79.9809C284.798 82.4129 285.31 84.5889 286.334 86.5089C287.358 88.3649 288.766 89.8369 290.558 90.9249C292.35 91.9489 294.398 92.4609 296.702 92.4609ZM329.662 103.213V56.8449H342.238V103.213H329.662ZM359.902 103.213V75.8529C359.902 73.1649 359.038 71.0849 357.31 69.6129C355.646 68.0769 353.566 67.3089 351.07 67.3089C349.406 67.3089 347.902 67.6609 346.558 68.3649C345.214 69.0049 344.158 69.9649 343.39 71.2449C342.622 72.5249 342.238 74.0609 342.238 75.8529L337.342 73.4529C337.342 69.8689 338.11 66.7649 339.646 64.1409C341.246 61.5169 343.39 59.5009 346.078 58.0929C348.766 56.6209 351.806 55.8849 355.198 55.8849C358.398 55.8849 361.31 56.6209 363.934 58.0929C366.558 59.5009 368.638 61.5169 370.174 64.1409C371.71 66.7009 372.478 69.8049 372.478 73.4529V103.213H359.902ZM390.142 103.213V75.8529C390.142 73.1649 389.278 71.0849 387.55 69.6129C385.886 68.0769 383.806 67.3089 381.31 67.3089C379.71 67.3089 378.206 67.6609 376.798 68.3649C375.454 69.0049 374.398 69.9649 373.63 71.2449C372.862 72.5249 372.478 74.0609 372.478 75.8529L365.278 74.1249C365.534 70.4129 366.526 67.2129 368.254 64.5249C369.982 61.7729 372.254 59.6609 375.07 58.1889C377.886 56.6529 381.022 55.8849 384.478 55.8849C387.934 55.8849 391.038 56.6209 393.79 58.0929C396.542 59.5009 398.718 61.5489 400.318 64.2369C401.918 66.9249 402.718 70.1249 402.718 73.8369V103.213H390.142ZM432.304 104.173C428.08 104.173 424.272 103.117 420.88 101.005C417.488 98.8929 414.832 96.0129 412.912 92.3649C410.992 88.7169 410.032 84.6209 410.032 80.0769C410.032 75.4689 410.992 71.3409 412.912 67.6929C414.832 64.0449 417.488 61.1649 420.88 59.0529C424.272 56.9409 428.08 55.8849 432.304 55.8849C435.632 55.8849 438.608 56.5569 441.232 57.9009C443.856 59.2449 445.936 61.1329 447.472 63.5649C449.072 65.9329 449.936 68.6209 450.064 71.6289V88.3329C449.936 91.4049 449.072 94.1249 447.472 96.4929C445.936 98.8609 443.856 100.749 441.232 102.157C438.608 103.501 435.632 104.173 432.304 104.173ZM434.608 92.5569C438.128 92.5569 440.976 91.4049 443.152 89.1009C445.328 86.7329 446.416 83.6929 446.416 79.9809C446.416 77.5489 445.904 75.4049 444.88 73.5489C443.92 71.6289 442.544 70.1569 440.752 69.1329C439.024 68.0449 436.976 67.5009 434.608 67.5009C432.304 67.5009 430.256 68.0449 428.464 69.1329C426.736 70.1569 425.36 71.6289 424.336 73.5489C423.376 75.4049 422.896 77.5489 422.896 79.9809C422.896 82.4769 423.376 84.6849 424.336 86.6049C425.36 88.4609 426.736 89.9329 428.464 91.0209C430.256 92.0449 432.304 92.5569 434.608 92.5569ZM445.744 103.213V90.7329L447.76 79.4049L445.744 68.2689V56.8449H458.224V103.213H445.744Z" fill="white"/>
<path d="M6.912 103.213H4.912V105.213H6.912V103.213ZM6.912 35.7249V33.7249H4.912V35.7249H6.912ZM19.968 35.7249H21.968V33.7249H19.968V35.7249ZM19.968 103.213V105.213H21.968V103.213H19.968ZM16.512 103.213H14.512V105.213H16.512V103.213ZM16.512 91.5969V89.5969H14.512V91.5969H16.512ZM50.88 91.5969H52.88V89.5969H50.88V91.5969ZM50.88 103.213V105.213H52.88V103.213H50.88ZM6.912 103.213H8.912V35.7249H6.912H4.912V103.213H6.912ZM6.912 35.7249V37.7249H19.968V35.7249V33.7249H6.912V35.7249ZM19.968 35.7249H17.968V103.213H19.968H21.968V35.7249H19.968ZM19.968 103.213V101.213H6.912V103.213V105.213H19.968V103.213ZM16.512 103.213H18.512V91.5969H16.512H14.512V103.213H16.512ZM16.512 91.5969V93.5969H50.88V91.5969V89.5969H16.512V91.5969ZM50.88 91.5969H48.88V103.213H50.88H52.88V91.5969H50.88ZM50.88 103.213V101.213H16.512V103.213V105.213H50.88V103.213ZM65.661 101.005L64.6039 102.703V102.703L65.661 101.005ZM57.693 92.3649L59.4628 91.4334L57.693 92.3649ZM57.693 67.6929L59.4628 68.6244V68.6244L57.693 67.6929ZM65.661 59.0529L66.7181 60.7507V60.7507L65.661 59.0529ZM92.253 63.5649L90.562 64.6329L90.5785 64.659L90.5958 64.6846L92.253 63.5649ZM94.845 71.6289H96.845V71.5863L96.8432 71.5439L94.845 71.6289ZM94.845 88.3329L96.8433 88.4162L96.845 88.3745V88.3329H94.845ZM92.253 96.4929L90.5958 95.3732L90.5853 95.3887L90.5751 95.4045L92.253 96.4929ZM86.013 102.157L86.9248 103.937L86.9418 103.928L86.9586 103.919L86.013 102.157ZM87.933 89.1009L89.387 90.4741L89.3964 90.4642L89.4057 90.4541L87.933 89.1009ZM89.661 73.5489L87.8721 74.4433L87.8903 74.4796L87.9099 74.515L89.661 73.5489ZM85.533 69.1329L84.4674 70.8254L84.5036 70.8481L84.5407 70.8694L85.533 69.1329ZM73.245 69.1329L74.2646 70.8535L74.2738 70.848L74.283 70.8425L73.245 69.1329ZM69.117 73.5489L67.3523 72.6077L67.3464 72.6188L67.3406 72.63L69.117 73.5489ZM69.117 86.6049L67.3281 87.4993L67.3463 87.5356L67.3658 87.571L69.117 86.6049ZM73.245 91.0209L72.1794 92.7134L72.2156 92.7362L72.2527 92.7574L73.245 91.0209ZM90.525 103.213H88.525V105.213H90.525V103.213ZM90.525 90.7329L88.5559 90.3825L88.525 90.5563V90.7329H90.525ZM92.541 79.4049L94.5101 79.7553L94.573 79.4019L94.509 79.0486L92.541 79.4049ZM90.525 68.2689H88.525V68.4485L88.557 68.6252L90.525 68.2689ZM90.525 56.8449V54.8449H88.525V56.8449H90.525ZM103.005 56.8449H105.005V54.8449H103.005V56.8449ZM103.005 103.213V105.213H105.005V103.213H103.005ZM77.085 104.173V102.173C73.2124 102.173 69.7745 101.21 66.7181 99.3071L65.661 101.005L64.6039 102.703C68.3315 105.024 72.5096 106.173 77.085 106.173V104.173ZM65.661 101.005L66.7181 99.3071C63.6373 97.3889 61.223 94.7776 59.4628 91.4334L57.693 92.3649L55.9232 93.2964C58.003 97.2481 60.9007 100.397 64.6039 102.703L65.661 101.005ZM57.693 92.3649L59.4628 91.4334C57.709 88.1011 56.813 84.3301 56.813 80.0769H54.813H52.813C52.813 84.9116 53.837 89.3327 55.9232 93.2964L57.693 92.3649ZM54.813 80.0769H56.813C56.813 75.7547 57.7111 71.9527 59.4628 68.6244L57.693 67.6929L55.9232 66.7614C53.8349 70.7291 52.813 75.1831 52.813 80.0769H54.813ZM57.693 67.6929L59.4628 68.6244C61.223 65.2801 63.6373 62.6689 66.7181 60.7507L65.661 59.0529L64.6039 57.3551C60.9007 59.6609 58.003 62.8097 55.9232 66.7614L57.693 67.6929ZM65.661 59.0529L66.7181 60.7507C69.7745 58.8477 73.2124 57.8849 77.085 57.8849V55.8849V53.8849C72.5096 53.8849 68.3315 55.0341 64.6039 57.3551L65.661 59.0529ZM77.085 55.8849V57.8849C80.1372 57.8849 82.794 58.4992 85.1012 59.681L86.013 57.9009L86.9248 56.1208C83.984 54.6146 80.6888 53.8849 77.085 53.8849V55.8849ZM86.013 57.9009L85.1012 59.681C87.4148 60.8659 89.2223 62.5116 90.562 64.6329L92.253 63.5649L93.944 62.4969C92.2118 59.7542 89.8592 57.6238 86.9248 56.1208L86.013 57.9009ZM92.253 63.5649L90.5958 64.6846C91.9773 66.7292 92.7337 69.055 92.8468 71.7139L94.845 71.6289L96.8432 71.5439C96.7003 68.1867 95.7287 65.1366 93.9102 62.4452L92.253 63.5649ZM94.845 71.6289H92.845V88.3329H94.845H96.845V71.6289H94.845ZM94.845 88.3329L92.8467 88.2496C92.733 90.9804 91.9725 93.3357 90.5958 95.3732L92.253 96.4929L93.9102 97.6126C95.7335 94.9141 96.701 91.8294 96.8433 88.4162L94.845 88.3329ZM92.253 96.4929L90.5751 95.4045C89.2327 97.4741 87.4113 99.1368 85.0674 100.395L86.013 102.157L86.9586 103.919C89.8627 102.361 92.2013 100.248 93.9309 97.5813L92.253 96.4929ZM86.013 102.157L85.1012 100.377C82.794 101.559 80.1372 102.173 77.085 102.173V104.173V106.173C80.6888 106.173 83.984 105.443 86.9248 103.937L86.013 102.157ZM79.389 92.5569V94.5569C83.3919 94.5569 86.7893 93.2246 89.387 90.4741L87.933 89.1009L86.479 87.7276C84.7247 89.5851 82.4261 90.5569 79.389 90.5569V92.5569ZM87.933 89.1009L89.4057 90.4541C91.9729 87.6604 93.197 84.1114 93.197 79.9809H91.197H89.197C89.197 83.2743 88.2451 85.8054 86.4603 87.7476L87.933 89.1009ZM91.197 79.9809H93.197C93.197 77.2613 92.6221 74.7757 91.4122 72.5827L89.661 73.5489L87.9099 74.515C88.7479 76.034 89.197 77.8365 89.197 79.9809H91.197ZM89.661 73.5489L91.4499 72.6545C90.3208 70.3963 88.6743 68.6244 86.5253 67.3964L85.533 69.1329L84.5407 70.8694C85.9757 71.6893 87.0813 72.8615 87.8721 74.4433L89.661 73.5489ZM85.533 69.1329L86.5986 67.4404C84.5033 66.1211 82.0727 65.5009 79.389 65.5009V67.5009V69.5009C81.4413 69.5009 83.1067 69.9687 84.4674 70.8254L85.533 69.1329ZM79.389 67.5009V65.5009C76.7564 65.5009 74.3424 66.1268 72.207 67.4233L73.245 69.1329L74.283 70.8425C75.7316 69.963 77.4136 69.5009 79.389 69.5009V67.5009ZM73.245 69.1329L72.2254 67.4123C70.1562 68.6385 68.5337 70.3925 67.3523 72.6077L69.117 73.5489L70.8817 74.4901C71.7483 72.8653 72.8778 71.6753 74.2646 70.8535L73.245 69.1329ZM69.117 73.5489L67.3406 72.63C66.2113 74.8133 65.677 77.2816 65.677 79.9809H67.677H69.677C69.677 77.8162 70.1027 75.9965 70.8934 74.4677L69.117 73.5489ZM67.677 79.9809H65.677C65.677 82.7369 66.2083 85.2597 67.3281 87.4993L69.117 86.6049L70.9059 85.7105C70.1057 84.1101 69.677 82.2169 69.677 79.9809H67.677ZM69.117 86.6049L67.3658 87.571C68.5468 89.7115 70.154 91.4381 72.1794 92.7134L73.245 91.0209L74.3106 89.3284C72.88 88.4277 71.7352 87.2103 70.8682 85.6387L69.117 86.6049ZM73.245 91.0209L72.2527 92.7574C74.3809 93.9735 76.7783 94.5569 79.389 94.5569V92.5569V90.5569C77.3917 90.5569 75.6931 90.1163 74.2373 89.2844L73.245 91.0209ZM90.525 103.213H92.525V90.7329H90.525H88.525V103.213H90.525ZM90.525 90.7329L92.4941 91.0833L94.5101 79.7553L92.541 79.4049L90.5719 79.0545L88.5559 90.3825L90.525 90.7329ZM92.541 79.4049L94.509 79.0486L92.493 67.9126L90.525 68.2689L88.557 68.6252L90.573 79.7612L92.541 79.4049ZM90.525 68.2689H92.525V56.8449H90.525H88.525V68.2689H90.525ZM90.525 56.8449V58.8449H103.005V56.8449V54.8449H90.525V56.8449ZM103.005 56.8449H101.005V103.213H103.005H105.005V56.8449H103.005ZM103.005 103.213V101.213H90.525V103.213V105.213H103.005V103.213ZM130.835 102.061L129.906 103.833V103.833L130.835 102.061ZM121.811 88.1409H119.811V88.1834L119.812 88.2259L121.811 88.1409ZM121.811 71.6289L119.812 71.5439L119.811 71.5864V71.6289H121.811ZM124.402 63.5649L122.752 62.4355L122.745 62.4452L124.402 63.5649ZM151.379 59.0529L150.321 60.7507V60.7507L151.379 59.0529ZM159.346 67.6929L157.577 68.6244L157.583 68.6365L157.59 68.6484L159.346 67.6929ZM159.346 92.3649L157.59 91.4093L157.583 91.4213L157.577 91.4334L159.346 92.3649ZM151.379 101.005L150.321 99.3071V99.3071L151.379 101.005ZM114.131 103.213H112.131V105.213H114.131V103.213ZM114.131 33.8049V31.8049H112.131V33.8049H114.131ZM126.706 33.8049H128.706V31.8049H126.706V33.8049ZM126.706 68.2689L128.671 68.6416L128.706 68.4569V68.2689H126.706ZM124.594 79.4049L122.63 79.0322L122.561 79.3934L122.625 79.7553L124.594 79.4049ZM126.611 90.7329H128.611V90.5563L128.58 90.3825L126.611 90.7329ZM126.611 103.213V105.213H128.611V103.213H126.611ZM143.794 91.0209L144.814 92.7415L144.823 92.736L144.832 92.7305L143.794 91.0209ZM147.923 86.6049L146.158 85.6637L146.152 85.6748L146.146 85.686L147.923 86.6049ZM147.923 73.5489L146.134 74.4433L146.152 74.4796L146.171 74.515L147.923 73.5489ZM143.794 69.1329L142.757 70.8425L142.779 70.8562L142.802 70.8694L143.794 69.1329ZM131.507 69.1329L132.526 70.8535L132.535 70.848L132.544 70.8425L131.507 69.1329ZM127.379 73.5489L125.614 72.6077L125.608 72.6188L125.602 72.63L127.379 73.5489ZM127.379 86.6049L125.59 87.4993L125.608 87.5356L125.627 87.571L127.379 86.6049ZM131.603 91.0209L130.565 92.7305L130.587 92.7442L130.61 92.7574L131.603 91.0209ZM139.859 104.173V102.173C136.822 102.173 134.137 101.533 131.763 100.289L130.835 102.061L129.906 103.833C132.908 105.405 136.239 106.173 139.859 106.173V104.173ZM130.835 102.061L131.763 100.289C129.362 99.0318 127.479 97.3379 126.073 95.2017L124.402 96.3009L122.732 97.4001C124.526 100.128 126.931 102.274 129.906 103.833L130.835 102.061ZM124.402 96.3009L126.073 95.2017C124.679 93.0826 123.922 90.7154 123.809 88.0559L121.811 88.1409L119.812 88.2259C119.955 91.5824 120.926 94.6552 122.732 97.4001L124.402 96.3009ZM121.811 88.1409H123.811V71.6289H121.811H119.811V88.1409H121.811ZM121.811 71.6289L123.809 71.7139C123.922 69.055 124.678 66.7292 126.06 64.6846L124.402 63.5649L122.745 62.4452C120.927 65.1366 119.955 68.1867 119.812 71.5439L121.811 71.6289ZM124.402 63.5649L126.053 64.6943C127.521 62.5485 129.435 60.8849 131.825 59.6897L130.93 57.9009L130.036 56.112C127.05 57.6049 124.612 59.7172 122.752 62.4355L124.402 63.5649ZM130.93 57.9009L131.825 59.6897C134.212 58.4963 136.878 57.8849 139.859 57.8849V55.8849V53.8849C136.311 53.8849 133.025 54.6175 130.036 56.112L130.93 57.9009ZM139.859 55.8849V57.8849C143.801 57.8849 147.27 58.8507 150.321 60.7507L151.379 59.0529L152.436 57.3551C148.703 55.0311 144.492 53.8849 139.859 53.8849V55.8849ZM151.379 59.0529L150.321 60.7507C153.402 62.6689 155.817 65.2801 157.577 68.6244L159.346 67.6929L161.116 66.7614C159.036 62.8097 156.139 59.6609 152.436 57.3551L151.379 59.0529ZM159.346 67.6929L157.59 68.6484C159.397 71.9721 160.323 75.7654 160.323 80.0769H162.323H164.323C164.323 75.1724 163.264 70.7097 161.103 66.7373L159.346 67.6929ZM162.323 80.0769H160.323C160.323 84.3193 159.399 88.0816 157.59 91.4093L159.346 92.3649L161.103 93.3204C163.262 89.3521 164.323 84.9225 164.323 80.0769H162.323ZM159.346 92.3649L157.577 91.4334C155.817 94.7776 153.402 97.3889 150.321 99.3071L151.379 101.005L152.436 102.703C156.139 100.397 159.036 97.2481 161.116 93.2964L159.346 92.3649ZM151.379 101.005L150.321 99.3071C147.27 101.207 143.801 102.173 139.859 102.173V104.173V106.173C144.492 106.173 148.703 105.027 152.436 102.703L151.379 101.005ZM114.131 103.213H116.131V33.8049H114.131H112.131V103.213H114.131ZM114.131 33.8049V35.8049H126.706V33.8049V31.8049H114.131V33.8049ZM126.706 33.8049H124.706V68.2689H126.706H128.706V33.8049H126.706ZM126.706 68.2689L124.742 67.8962L122.63 79.0322L124.594 79.4049L126.559 79.7776L128.671 68.6416L126.706 68.2689ZM124.594 79.4049L122.625 79.7553L124.641 91.0833L126.611 90.7329L128.58 90.3825L126.564 79.0545L124.594 79.4049ZM126.611 90.7329H124.611V103.213H126.611H128.611V90.7329H126.611ZM126.611 103.213V101.213H114.131V103.213V105.213H126.611V103.213ZM137.747 92.5569V94.5569C140.356 94.5569 142.734 93.9739 144.814 92.7415L143.794 91.0209L142.775 89.3003C141.399 90.1159 139.745 90.5569 137.747 90.5569V92.5569ZM143.794 91.0209L144.832 92.7305C146.938 91.4524 148.57 89.7073 149.699 87.5237L147.923 86.6049L146.146 85.686C145.355 87.2145 144.236 88.4134 142.757 89.3113L143.794 91.0209ZM147.923 86.6049L149.687 87.5461C150.887 85.2963 151.458 82.7565 151.458 79.9809H149.458H147.458C147.458 82.1973 147.006 84.0735 146.158 85.6637L147.923 86.6049ZM149.458 79.9809H151.458C151.458 77.2613 150.884 74.7757 149.674 72.5827L147.923 73.5489L146.171 74.515C147.009 76.034 147.458 77.8365 147.458 79.9809H149.458ZM147.923 73.5489L149.711 72.6545C148.582 70.3963 146.936 68.6244 144.787 67.3964L143.794 69.1329L142.802 70.8694C144.237 71.6893 145.343 72.8615 146.134 74.4433L147.923 73.5489ZM143.794 69.1329L144.832 67.4233C142.697 66.1268 140.283 65.5009 137.65 65.5009V67.5009V69.5009C139.626 69.5009 141.308 69.963 142.757 70.8425L143.794 69.1329ZM137.65 67.5009V65.5009C135.018 65.5009 132.604 66.1268 130.469 67.4233L131.507 69.1329L132.544 70.8425C133.993 69.963 135.675 69.5009 137.65 69.5009V67.5009ZM131.507 69.1329L130.487 67.4123C128.418 68.6385 126.795 70.3925 125.614 72.6077L127.379 73.5489L129.143 74.4901C130.01 72.8653 131.139 71.6753 132.526 70.8535L131.507 69.1329ZM127.379 73.5489L125.602 72.63C124.473 74.8133 123.938 77.2816 123.938 79.9809H125.938H127.938C127.938 77.8162 128.364 75.9965 129.155 74.4677L127.379 73.5489ZM125.938 79.9809H123.938C123.938 82.7369 124.47 85.2597 125.59 87.4993L127.379 86.6049L129.167 85.7105C128.367 84.1101 127.938 82.2169 127.938 79.9809H125.938ZM127.379 86.6049L125.627 87.571C126.818 89.7293 128.471 91.4591 130.565 92.7305L131.603 91.0209L132.64 89.3113C131.15 88.4067 129.987 87.1925 129.13 85.6387L127.379 86.6049ZM131.603 91.0209L130.61 92.7574C132.738 93.9735 135.136 94.5569 137.747 94.5569V92.5569V90.5569C135.749 90.5569 134.051 90.1163 132.595 89.2844L131.603 91.0209ZM189.48 101.581L188.699 103.422L188.711 103.427L188.723 103.432L189.48 101.581ZM178.344 94.1889L176.916 95.5887L176.93 95.6032L176.944 95.6173L178.344 94.1889ZM171.048 83.0529L169.187 83.7859L169.192 83.7981L169.197 83.8102L171.048 83.0529ZM171.048 55.7889L169.197 55.0316L169.192 55.0437L169.187 55.0558L171.048 55.7889ZM178.344 44.7489L176.944 43.3205L176.937 43.3275L176.93 43.3347L178.344 44.7489ZM189.384 37.3569L188.603 35.5157L188.593 35.5201L189.384 37.3569ZM217.416 37.3569L216.614 39.1892L216.626 39.1945L216.639 39.1996L217.416 37.3569ZM228.264 44.5569L229.678 45.9711L231.107 44.5422L229.664 43.1282L228.264 44.5569ZM219.432 53.3889L217.95 54.7319L219.361 56.2886L220.846 54.8031L219.432 53.3889ZM212.616 48.5889L211.828 50.4272V50.4272L212.616 48.5889ZM194.568 48.4929L195.311 50.3498L195.322 50.3452L195.334 50.3404L194.568 48.4929ZM187.848 53.1009L189.285 54.4917L189.296 54.4803L189.307 54.4688L187.848 53.1009ZM183.432 60.3009L185.306 60.9984L185.309 60.9914L185.312 60.9844L183.432 60.3009ZM183.432 78.6369L181.558 79.3344V79.3344L183.432 78.6369ZM187.848 85.8369L186.389 87.2048L186.4 87.2163L186.411 87.2277L187.848 85.8369ZM194.568 90.4449L193.786 92.2856L193.794 92.289L193.802 92.2924L194.568 90.4449ZM212.904 90.3489L212.132 88.504L212.124 88.5073L212.116 88.5106L212.904 90.3489ZM219.816 85.4529L221.23 84.0387L219.722 82.5303L218.314 84.1327L219.816 85.4529ZM228.648 94.2849L230.062 95.6991L231.476 94.2849L230.062 92.8707L228.648 94.2849ZM217.704 101.581L218.471 103.428L217.704 101.581ZM203.208 104.173V102.173C198.519 102.173 194.202 101.352 190.237 99.7298L189.48 101.581L188.723 103.432C193.206 105.266 198.041 106.173 203.208 106.173V104.173ZM189.48 101.581L190.261 99.7397C186.262 98.043 182.761 95.7172 179.744 92.7605L178.344 94.1889L176.944 95.6173C180.327 98.9326 184.25 101.535 188.699 103.422L189.48 101.581ZM178.344 94.1889L179.772 92.789C176.821 89.7774 174.531 86.2847 172.899 82.2956L171.048 83.0529L169.197 83.8102C171.021 88.2691 173.595 92.2004 176.916 95.5887L178.344 94.1889ZM171.048 83.0529L172.909 82.3198C171.343 78.3455 170.552 74.052 170.552 69.4209H168.552H166.552C166.552 74.5177 167.425 79.3122 169.187 83.7859L171.048 83.0529ZM168.552 69.4209H170.552C170.552 64.7897 171.343 60.4962 172.909 56.5219L171.048 55.7889L169.187 55.0558C167.425 59.5295 166.552 64.324 166.552 69.4209H168.552ZM171.048 55.7889L172.899 56.5462C174.53 52.5607 176.816 49.1058 179.758 46.1631L178.344 44.7489L176.93 43.3347C173.6 46.664 171.022 50.5691 169.197 55.0316L171.048 55.7889ZM178.344 44.7489L179.744 46.1773C182.766 43.2157 186.239 40.8893 190.175 39.1937L189.384 37.3569L188.593 35.5201C184.209 37.4084 180.322 40.0101 176.944 43.3205L178.344 44.7489ZM189.384 37.3569L190.165 39.1981C194.121 37.5198 198.461 36.6689 203.208 36.6689V34.6689V32.6689C197.971 32.6689 193.095 33.61 188.603 35.5157L189.384 37.3569ZM203.208 34.6689V36.6689C208.363 36.6689 212.817 37.5278 216.614 39.1892L217.416 37.3569L218.218 35.5246C213.823 33.602 208.805 32.6689 203.208 32.6689V34.6689ZM217.416 37.3569L216.639 39.1996C220.506 40.8312 223.91 43.0917 226.864 45.9856L228.264 44.5569L229.664 43.1282C226.346 39.878 222.518 37.3386 218.193 35.5142L217.416 37.3569ZM228.264 44.5569L226.85 43.1427L218.018 51.9747L219.432 53.3889L220.846 54.8031L229.678 45.9711L228.264 44.5569ZM219.432 53.3889L220.914 52.0458C218.854 49.7725 216.34 48.0092 213.404 46.7506L212.616 48.5889L211.828 50.4272C214.268 51.4726 216.298 52.9093 217.95 54.7319L219.432 53.3889ZM212.616 48.5889L213.404 46.7506C210.417 45.4707 207.003 44.8609 203.208 44.8609V46.8609V48.8609C206.581 48.8609 209.439 49.403 211.828 50.4272L212.616 48.5889ZM203.208 46.8609V44.8609C199.837 44.8609 196.693 45.4467 193.802 46.6454L194.568 48.4929L195.334 50.3404C197.691 49.3631 200.307 48.8609 203.208 48.8609V46.8609ZM194.568 48.4929L193.825 46.6359C190.989 47.7706 188.505 49.4756 186.389 51.733L187.848 53.1009L189.307 54.4688C191.031 52.6302 193.027 51.2632 195.311 50.3498L194.568 48.4929ZM187.848 53.1009L186.411 51.71C184.279 53.9129 182.664 56.5599 181.552 59.6174L183.432 60.3009L185.312 60.9844C186.248 58.4098 187.577 56.2569 189.285 54.4917L187.848 53.1009ZM183.432 60.3009L181.558 59.6034C180.44 62.6063 179.896 65.8862 179.896 69.4209H181.896H183.896C183.896 66.2995 184.376 63.4995 185.306 60.9984L183.432 60.3009ZM181.896 69.4209H179.896C179.896 73.0146 180.439 76.3275 181.558 79.3344L183.432 78.6369L185.306 77.9394C184.377 75.4423 183.896 72.6112 183.896 69.4209H181.896ZM183.432 78.6369L181.558 79.3344C182.67 82.3235 184.279 84.9542 186.389 87.2048L187.848 85.8369L189.307 84.469C187.577 82.6236 186.242 80.4542 185.306 77.9394L183.432 78.6369ZM187.848 85.8369L186.411 87.2277C188.518 89.4054 190.981 91.0937 193.786 92.2856L194.568 90.4449L195.35 88.6042C193.035 87.6201 191.018 86.2363 189.285 84.446L187.848 85.8369ZM194.568 90.4449L193.802 92.2924C196.693 93.4911 199.837 94.0769 203.208 94.0769V92.0769V90.0769C200.307 90.0769 197.691 89.5747 195.334 88.5974L194.568 90.4449ZM203.208 92.0769V94.0769C207.179 94.0769 210.694 93.4721 213.692 92.1872L212.904 90.3489L212.116 88.5106C209.738 89.5297 206.789 90.0769 203.208 90.0769V92.0769ZM212.904 90.3489L213.676 92.1938C216.691 90.9319 219.25 89.127 221.318 86.7731L219.816 85.4529L218.314 84.1327C216.67 86.0028 214.621 87.4619 212.132 88.504L212.904 90.3489ZM219.816 85.4529L218.402 86.8671L227.234 95.6991L228.648 94.2849L230.062 92.8707L221.23 84.0387L219.816 85.4529ZM228.648 94.2849L227.234 92.8707C224.286 95.8185 220.859 98.1048 216.937 99.7339L217.704 101.581L218.471 103.428C222.869 101.601 226.738 99.0233 230.062 95.6991L228.648 94.2849ZM217.704 101.581L216.937 99.7339C213.067 101.341 208.506 102.173 203.208 102.173V104.173V106.173C208.918 106.173 214.021 105.277 218.471 103.428L217.704 101.581ZM236.38 103.213H234.38V105.213H236.38V103.213ZM236.38 56.8449V54.8449H234.38V56.8449H236.38ZM248.956 56.8449H250.956V54.8449H248.956V56.8449ZM248.956 103.213V105.213H250.956V103.213H248.956ZM248.956 77.5809L247.847 79.245L250.956 81.3179V77.5809H248.956ZM244.061 74.3169L242.071 74.1157L241.95 75.3133L242.951 75.981L244.061 74.3169ZM249.053 60.8769L250.582 62.1661L250.588 62.1588L250.594 62.1514L249.053 60.8769ZM267.005 57.0369L266.217 58.8752L266.245 58.8872L266.273 58.8984L267.005 57.0369ZM271.901 60.5889L273.408 61.9036L274.563 60.5797L273.398 59.2637L271.901 60.5889ZM264.029 69.6129L262.554 70.9643L264.065 72.613L265.536 70.9276L264.029 69.6129ZM261.436 67.8849L260.694 69.7418L260.714 69.7499L260.734 69.7575L261.436 67.8849ZM236.38 103.213H238.38V56.8449H236.38H234.38V103.213H236.38ZM236.38 56.8449V58.8449H248.956V56.8449V54.8449H236.38V56.8449ZM248.956 56.8449H246.956V103.213H248.956H250.956V56.8449H248.956ZM248.956 103.213V101.213H236.38V103.213V105.213H248.956V103.213ZM248.956 77.5809L250.066 75.9168L245.17 72.6528L244.061 74.3169L242.951 75.981L247.847 79.245L248.956 77.5809ZM244.061 74.3169L246.05 74.5181C246.599 69.0889 248.164 65.0331 250.582 62.1661L249.053 60.8769L247.523 59.5877C244.437 63.2487 242.674 68.1529 242.071 74.1157L244.061 74.3169ZM249.053 60.8769L250.594 62.1514C252.889 59.3757 256.237 57.8849 260.957 57.8849V55.8849V53.8849C255.308 53.8849 250.72 55.722 247.511 59.6024L249.053 60.8769ZM260.957 55.8849V57.8849C262.966 57.8849 264.708 58.2286 266.217 58.8752L267.005 57.0369L267.792 55.1986C265.717 54.3092 263.427 53.8849 260.957 53.8849V55.8849ZM267.005 57.0369L266.273 58.8984C267.729 59.4701 269.108 60.4504 270.403 61.914L271.901 60.5889L273.398 59.2637C271.749 57.3994 269.865 56.0117 267.736 55.1754L267.005 57.0369ZM271.901 60.5889L270.393 59.2742L262.521 68.2981L264.029 69.6129L265.536 70.9276L273.408 61.9036L271.901 60.5889ZM264.029 69.6129L265.503 68.2614C264.575 67.2498 263.442 66.5011 262.139 66.0122L261.436 67.8849L260.734 69.7575C261.479 70.0367 262.074 70.44 262.554 70.9643L264.029 69.6129ZM261.436 67.8849L262.179 66.0279C260.934 65.5299 259.552 65.3089 258.077 65.3089V67.3089V69.3089C259.161 69.3089 260.019 69.4719 260.694 69.7418L261.436 67.8849ZM258.077 67.3089V65.3089C254.916 65.3089 252.181 66.3443 250.038 68.4867L251.452 69.9009L252.867 71.3151C254.18 70.0014 255.861 69.3089 258.077 69.3089V67.3089ZM251.452 69.9009L250.038 68.4867C247.854 70.6706 246.956 73.8421 246.956 77.5809H248.956H250.956C250.956 74.4076 251.723 72.4592 252.867 71.3151L251.452 69.9009ZM284.125 101.005L283.114 102.73L283.132 102.741L283.149 102.75L284.125 101.005ZM275.198 92.2689L273.472 93.2803L273.482 93.298L273.493 93.3154L275.198 92.2689ZM275.198 67.6929L276.907 68.7308L276.911 68.7242L276.915 68.7174L275.198 67.6929ZM284.125 59.0529L285.102 60.7984L285.113 60.7921L285.124 60.7858L284.125 59.0529ZM309.374 59.0529L308.362 60.7783L308.38 60.7885L308.397 60.7984L309.374 59.0529ZM318.302 67.6929L316.584 68.7174L316.588 68.7242L316.592 68.7308L318.302 67.6929ZM318.302 92.2689L320.019 93.2934L320.023 93.2869L320.027 93.2803L318.302 92.2689ZM309.374 101.005L310.363 102.743L310.372 102.738L309.374 101.005ZM302.941 90.9249L303.934 92.6614L303.943 92.6559L303.953 92.6503L302.941 90.9249ZM307.165 86.5089L305.401 85.5677L305.395 85.5788L305.389 85.59L307.165 86.5089ZM302.941 69.2289L301.904 70.9385L301.926 70.9522L301.949 70.9654L302.941 69.2289ZM290.557 69.2289L291.55 70.9654L291.573 70.9522L291.595 70.9385L290.557 69.2289ZM286.333 73.5489L288.085 74.515V74.515L286.333 73.5489ZM286.333 86.5089L284.569 87.4501L284.575 87.4626L284.582 87.475L286.333 86.5089ZM290.557 90.9249L289.52 92.6345L289.542 92.6482L289.565 92.6614L290.557 90.9249ZM296.798 104.173V102.173C292.439 102.173 288.556 101.191 285.102 99.2594L284.125 101.005L283.149 102.75C287.247 105.042 291.812 106.173 296.798 106.173V104.173ZM284.125 101.005L285.137 99.2795C281.707 97.2686 278.969 94.5891 276.902 91.2224L275.198 92.2689L273.493 93.3154C275.906 97.2446 279.12 100.389 283.114 102.73L284.125 101.005ZM275.198 92.2689L276.923 91.2575C274.937 87.8696 273.934 84.0941 273.934 79.8849H271.934H269.934C269.934 84.7637 271.106 89.2442 273.472 93.2803L275.198 92.2689ZM271.934 79.8849H273.934C273.934 75.6752 274.937 71.9759 276.907 68.7308L275.198 67.6929L273.488 66.6549C271.106 70.5779 269.934 75.0066 269.934 79.8849H271.934ZM275.198 67.6929L276.915 68.7174C278.908 65.3764 281.626 62.7426 285.102 60.7984L284.125 59.0529L283.149 57.3074C279.073 59.5872 275.839 62.7134 273.48 66.6683L275.198 67.6929ZM284.125 59.0529L285.124 60.7858C288.579 58.7949 292.423 57.7889 296.702 57.7889V55.7889V53.7889C291.764 53.7889 287.224 54.9589 283.127 57.32L284.125 59.0529ZM296.702 55.7889V57.7889C301.119 57.7889 304.987 58.7998 308.362 60.7783L309.374 59.0529L310.385 57.3275C306.336 54.9539 301.756 53.7889 296.702 53.7889V55.7889ZM309.374 59.0529L308.397 60.7984C311.873 62.7426 314.591 65.3764 316.584 68.7174L318.302 67.6929L320.019 66.6683C317.66 62.7134 314.426 59.5872 310.35 57.3074L309.374 59.0529ZM318.302 67.6929L316.592 68.7308C318.562 71.9759 319.565 75.6752 319.565 79.8849H321.565H323.565C323.565 75.0066 322.393 70.5779 320.011 66.6549L318.302 67.6929ZM321.565 79.8849H319.565C319.565 84.0941 318.562 87.8696 316.576 91.2574L318.302 92.2689L320.027 93.2803C322.393 89.2442 323.565 84.7637 323.565 79.8849H321.565ZM318.302 92.2689L316.584 91.2443C314.588 94.5908 311.863 97.2621 308.375 99.272L309.374 101.005L310.372 102.738C314.436 100.396 317.663 97.243 320.019 93.2934L318.302 92.2689ZM309.374 101.005L308.384 99.2666C305.002 101.191 301.156 102.173 296.798 102.173V104.173V106.173C301.783 106.173 306.321 105.043 310.363 102.743L309.374 101.005ZM296.702 92.4609V94.4609C299.366 94.4609 301.797 93.8821 303.934 92.6614L302.941 90.9249L301.949 89.1884C300.502 90.0156 298.773 90.4609 296.702 90.4609V92.4609ZM302.941 90.9249L303.953 92.6503C306.125 91.3771 307.803 89.6298 308.942 87.4277L307.165 86.5089L305.389 85.59C304.608 87.1 303.47 88.2967 301.93 89.1995L302.941 90.9249ZM307.165 86.5089L308.93 87.4501C310.126 85.2077 310.702 82.7019 310.702 79.9809H308.702H306.702C306.702 82.1238 306.253 83.9701 305.401 85.5677L307.165 86.5089ZM308.702 79.9809H310.702C310.702 77.2613 310.127 74.7757 308.917 72.5827L307.165 73.5489L305.414 74.515C306.252 76.034 306.702 77.8365 306.702 79.9809H308.702ZM307.165 73.5489L308.917 72.5827C307.72 70.4143 306.054 68.7037 303.934 67.4924L302.941 69.2289L301.949 70.9654C303.413 71.802 304.563 72.9715 305.414 74.515L307.165 73.5489ZM302.941 69.2289L303.979 67.5193C301.836 66.2176 299.387 65.5969 296.702 65.5969V67.5969V69.5969C298.752 69.5969 300.464 70.0641 301.904 70.9385L302.941 69.2289ZM296.702 67.5969V65.5969C294.069 65.5969 291.655 66.2228 289.52 67.5193L290.557 69.2289L291.595 70.9385C293.044 70.059 294.726 69.5969 296.702 69.5969V67.5969ZM290.557 69.2289L289.565 67.4924C287.445 68.7037 285.779 70.4143 284.582 72.5827L286.333 73.5489L288.085 74.515C288.936 72.9715 290.086 71.802 291.55 70.9654L290.557 69.2289ZM286.333 73.5489L284.582 72.5827C283.372 74.7757 282.797 77.2613 282.797 79.9809H284.797H286.797C286.797 77.8365 287.247 76.034 288.085 74.515L286.333 73.5489ZM284.797 79.9809H282.797C282.797 82.7019 283.373 85.2077 284.569 87.4501L286.333 86.5089L288.098 85.5677C287.246 83.9701 286.797 82.1238 286.797 79.9809H284.797ZM286.333 86.5089L284.582 87.475C285.773 89.6333 287.426 91.3631 289.52 92.6345L290.557 90.9249L291.595 89.2153C290.105 88.3107 288.942 87.0965 288.085 85.5427L286.333 86.5089ZM290.557 90.9249L289.565 92.6614C291.693 93.8775 294.091 94.4609 296.702 94.4609V92.4609V90.4609C294.704 90.4609 293.006 90.0203 291.55 89.1884L290.557 90.9249ZM329.662 103.213H327.662V105.213H329.662V103.213ZM329.662 56.8449V54.8449H327.662V56.8449H329.662ZM342.238 56.8449H344.238V54.8449H342.238V56.8449ZM342.238 103.213V105.213H344.238V103.213H342.238ZM359.902 103.213H357.902V105.213H359.902V103.213ZM357.31 69.6129L355.953 71.0825L355.982 71.1095L356.013 71.1354L357.31 69.6129ZM346.558 68.3649L347.418 70.1706L347.452 70.1542L347.486 70.1366L346.558 68.3649ZM343.39 71.2449L345.105 72.2739V72.2739L343.39 71.2449ZM342.238 75.8529L341.357 77.6487L344.238 79.0606V75.8529H342.238ZM337.342 73.4529H335.342V74.6999L336.461 75.2487L337.342 73.4529ZM339.646 64.1409L337.938 63.0997L337.929 63.115L337.92 63.1305L339.646 64.1409ZM346.078 58.0929L347.006 59.8646L347.022 59.856L347.038 59.8471L346.078 58.0929ZM363.934 58.0929L362.955 59.8372L362.972 59.8463L362.988 59.8552L363.934 58.0929ZM370.174 64.1409L368.448 65.1512L368.453 65.1606L368.459 65.1699L370.174 64.1409ZM372.478 103.213V105.213H374.478V103.213H372.478ZM390.142 103.213H388.142V105.213H390.142V103.213ZM387.55 69.6129L386.193 71.0825L386.222 71.1095L386.253 71.1354L387.55 69.6129ZM376.798 68.3649L377.658 70.1706L377.675 70.1623L377.692 70.1537L376.798 68.3649ZM373.63 71.2449L375.345 72.2739V72.2739L373.63 71.2449ZM372.478 75.8529L372.011 77.7977L374.478 78.3897V75.8529H372.478ZM365.278 74.1249L363.283 73.9873L363.166 75.6749L364.811 76.0697L365.278 74.1249ZM368.254 64.5249L369.936 65.6064L369.942 65.5974L369.948 65.5884L368.254 64.5249ZM375.07 58.1889L375.996 59.9613L376.012 59.9531L376.027 59.9447L375.07 58.1889ZM393.79 58.0929L392.846 59.8565L392.863 59.8651L392.879 59.8734L393.79 58.0929ZM400.318 64.2369L398.599 65.2599V65.2599L400.318 64.2369ZM402.718 103.213V105.213H404.718V103.213H402.718ZM329.662 103.213H331.662V56.8449H329.662H327.662V103.213H329.662ZM329.662 56.8449V58.8449H342.238V56.8449V54.8449H329.662V56.8449ZM342.238 56.8449H340.238V103.213H342.238H344.238V56.8449H342.238ZM342.238 103.213V101.213H329.662V103.213V105.213H342.238V103.213ZM359.902 103.213H361.902V75.8529H359.902H357.902V103.213H359.902ZM359.902 75.8529H361.902C361.902 72.698 360.864 70.0134 358.607 68.0904L357.31 69.6129L356.013 71.1354C357.211 72.1564 357.902 73.6318 357.902 75.8529H359.902ZM357.31 69.6129L358.666 68.1433C356.594 66.2302 354.013 65.3089 351.07 65.3089V67.3089V69.3089C353.119 69.3089 354.698 69.9235 355.953 71.0825L357.31 69.6129ZM351.07 67.3089V65.3089C349.114 65.3089 347.287 65.7251 345.63 66.5932L346.558 68.3649L347.486 70.1366C348.516 69.5967 349.697 69.3089 351.07 69.3089V67.3089ZM346.558 68.3649L345.698 66.5592C343.998 67.3688 342.645 68.5995 341.675 70.2159L343.39 71.2449L345.105 72.2739C345.671 71.3303 346.43 70.641 347.418 70.1706L346.558 68.3649ZM343.39 71.2449L341.675 70.2159C340.686 71.8639 340.238 73.7714 340.238 75.8529H342.238H344.238C344.238 74.3504 344.558 73.1859 345.105 72.2739L343.39 71.2449ZM342.238 75.8529L343.118 74.057L338.222 71.6571L337.342 73.4529L336.461 75.2487L341.357 77.6487L342.238 75.8529ZM337.342 73.4529H339.342C339.342 70.1601 340.045 67.4179 341.372 65.1512L339.646 64.1409L337.92 63.1305C336.175 66.1119 335.342 69.5777 335.342 73.4529H337.342ZM339.646 64.1409L341.353 65.1821C342.767 62.8636 344.643 61.102 347.006 59.8646L346.078 58.0929L345.15 56.3212C342.136 57.8998 339.724 60.1702 337.938 63.0997L339.646 64.1409ZM346.078 58.0929L347.038 59.8471C349.401 58.5531 352.105 57.8849 355.198 57.8849V55.8849V53.8849C351.507 53.8849 348.13 54.6887 345.117 56.3387L346.078 58.0929ZM355.198 55.8849V57.8849C358.078 57.8849 360.649 58.5435 362.955 59.8372L363.934 58.0929L364.912 56.3486C361.97 54.6982 358.718 53.8849 355.198 53.8849V55.8849ZM363.934 58.0929L362.988 59.8552C365.281 61.0853 367.094 62.8379 368.448 65.1512L370.174 64.1409L371.9 63.1305C370.182 60.1959 367.835 57.9164 364.879 56.3306L363.934 58.0929ZM370.174 64.1409L368.459 65.1699C369.771 67.3567 370.478 70.087 370.478 73.4529H372.478H374.478C374.478 69.5227 373.649 66.0451 371.889 63.1119L370.174 64.1409ZM372.478 73.4529H370.478V103.213H372.478H374.478V73.4529H372.478ZM372.478 103.213V101.213H359.902V103.213V105.213H372.478V103.213ZM390.142 103.213H392.142V75.8529H390.142H388.142V103.213H390.142ZM390.142 75.8529H392.142C392.142 72.698 391.104 70.0134 388.847 68.0904L387.55 69.6129L386.253 71.1354C387.451 72.1564 388.142 73.6318 388.142 75.8529H390.142ZM387.55 69.6129L388.906 68.1433C386.834 66.2302 384.253 65.3089 381.31 65.3089V67.3089V69.3089C383.359 69.3089 384.938 69.9235 386.193 71.0825L387.55 69.6129ZM381.31 67.3089V65.3089C379.405 65.3089 377.594 65.7308 375.903 66.576L376.798 68.3649L377.692 70.1537C378.818 69.5909 380.015 69.3089 381.31 69.3089V67.3089ZM376.798 68.3649L375.938 66.5592C374.238 67.3688 372.885 68.5995 371.915 70.2159L373.63 71.2449L375.345 72.2739C375.911 71.3303 376.67 70.641 377.658 70.1706L376.798 68.3649ZM373.63 71.2449L371.915 70.2159C370.926 71.8639 370.478 73.7714 370.478 75.8529H372.478H374.478C374.478 74.3504 374.798 73.1859 375.345 72.2739L373.63 71.2449ZM372.478 75.8529L372.944 73.9081L365.745 72.1801L365.278 74.1249L364.811 76.0697L372.011 77.7977L372.478 75.8529ZM365.278 74.1249L367.273 74.2625C367.51 70.8309 368.418 67.9677 369.936 65.6064L368.254 64.5249L366.571 63.4434C364.633 66.4581 363.558 69.9949 363.283 73.9873L365.278 74.1249ZM368.254 64.5249L369.948 65.5884C371.492 63.1294 373.502 61.2653 375.996 59.9613L375.07 58.1889L374.143 56.4164C371.006 58.0565 368.472 60.4164 366.56 63.4613L368.254 64.5249ZM375.07 58.1889L376.027 59.9447C378.527 58.5812 381.33 57.8849 384.478 57.8849V55.8849V53.8849C380.714 53.8849 377.244 54.7246 374.112 56.4331L375.07 58.1889ZM384.478 55.8849V57.8849C387.641 57.8849 390.415 58.5558 392.846 59.8565L393.79 58.0929L394.733 56.3293C391.661 54.686 388.227 53.8849 384.478 53.8849V55.8849ZM393.79 58.0929L392.879 59.8734C395.291 61.1078 397.189 62.8913 398.599 65.2599L400.318 64.2369L402.036 63.2139C400.246 60.2065 397.792 57.894 394.701 56.3124L393.79 58.0929ZM400.318 64.2369L398.599 65.2599C399.983 67.585 400.718 70.4173 400.718 73.8369H402.718H404.718C404.718 69.8325 403.852 66.2648 402.036 63.2139L400.318 64.2369ZM402.718 73.8369H400.718V103.213H402.718H404.718V73.8369H402.718ZM402.718 103.213V101.213H390.142V103.213V105.213H402.718V103.213ZM420.88 101.005L419.823 102.703V102.703L420.88 101.005ZM412.912 92.3649L414.682 91.4334L412.912 92.3649ZM412.912 67.6929L414.682 68.6244V68.6244L412.912 67.6929ZM420.88 59.0529L421.937 60.7507V60.7507L420.88 59.0529ZM447.472 63.5649L445.781 64.6329L445.797 64.659L445.815 64.6846L447.472 63.5649ZM450.064 71.6289H452.064V71.5863L452.062 71.5439L450.064 71.6289ZM450.064 88.3329L452.062 88.4162L452.064 88.3745V88.3329H450.064ZM447.472 96.4929L445.815 95.3732L445.804 95.3887L445.794 95.4045L447.472 96.4929ZM441.232 102.157L442.143 103.937L442.161 103.928L442.177 103.919L441.232 102.157ZM443.152 89.1009L444.606 90.4741L444.615 90.4642L444.624 90.4541L443.152 89.1009ZM444.88 73.5489L443.091 74.4433L443.109 74.4796L443.129 74.515L444.88 73.5489ZM440.752 69.1329L439.686 70.8254L439.722 70.8481L439.759 70.8694L440.752 69.1329ZM428.464 69.1329L429.483 70.8535L429.493 70.848L429.502 70.8425L428.464 69.1329ZM424.336 73.5489L422.571 72.6077L422.565 72.6188L422.559 72.63L424.336 73.5489ZM424.336 86.6049L422.547 87.4993L422.565 87.5356L422.585 87.571L424.336 86.6049ZM428.464 91.0209L427.398 92.7134L427.434 92.7362L427.471 92.7574L428.464 91.0209ZM445.744 103.213H443.744V105.213H445.744V103.213ZM445.744 90.7329L443.775 90.3825L443.744 90.5563V90.7329H445.744ZM447.76 79.4049L449.729 79.7553L449.792 79.4019L449.728 79.0486L447.76 79.4049ZM445.744 68.2689H443.744V68.4485L443.776 68.6252L445.744 68.2689ZM445.744 56.8449V54.8449H443.744V56.8449H445.744ZM458.224 56.8449H460.224V54.8449H458.224V56.8449ZM458.224 103.213V105.213H460.224V103.213H458.224ZM432.304 104.173V102.173C428.431 102.173 424.993 101.21 421.937 99.3071L420.88 101.005L419.823 102.703C423.55 105.024 427.728 106.173 432.304 106.173V104.173ZM420.88 101.005L421.937 99.3071C418.856 97.3889 416.442 94.7776 414.682 91.4334L412.912 92.3649L411.142 93.2964C413.222 97.2481 416.119 100.397 419.823 102.703L420.88 101.005ZM412.912 92.3649L414.682 91.4334C412.928 88.1011 412.032 84.3301 412.032 80.0769H410.032H408.032C408.032 84.9116 409.056 89.3327 411.142 93.2964L412.912 92.3649ZM410.032 80.0769H412.032C412.032 75.7547 412.93 71.9527 414.682 68.6244L412.912 67.6929L411.142 66.7614C409.054 70.7291 408.032 75.1831 408.032 80.0769H410.032ZM412.912 67.6929L414.682 68.6244C416.442 65.2801 418.856 62.6689 421.937 60.7507L420.88 59.0529L419.823 57.3551C416.119 59.6609 413.222 62.8097 411.142 66.7614L412.912 67.6929ZM420.88 59.0529L421.937 60.7507C424.993 58.8477 428.431 57.8849 432.304 57.8849V55.8849V53.8849C427.728 53.8849 423.55 55.0341 419.823 57.3551L420.88 59.0529ZM432.304 55.8849V57.8849C435.356 57.8849 438.013 58.4992 440.32 59.681L441.232 57.9009L442.143 56.1208C439.203 54.6146 435.908 53.8849 432.304 53.8849V55.8849ZM441.232 57.9009L440.32 59.681C442.634 60.8659 444.441 62.5116 445.781 64.6329L447.472 63.5649L449.163 62.4969C447.431 59.7542 445.078 57.6238 442.143 56.1208L441.232 57.9009ZM447.472 63.5649L445.815 64.6846C447.196 66.7292 447.952 69.055 448.066 71.7139L450.064 71.6289L452.062 71.5439C451.919 68.1867 450.947 65.1366 449.129 62.4452L447.472 63.5649ZM450.064 71.6289H448.064V88.3329H450.064H452.064V71.6289H450.064ZM450.064 88.3329L448.065 88.2496C447.952 90.9804 447.191 93.3357 445.815 95.3732L447.472 96.4929L449.129 97.6126C450.952 94.9141 451.92 91.8294 452.062 88.4162L450.064 88.3329ZM447.472 96.4929L445.794 95.4045C444.451 97.4741 442.63 99.1368 440.286 100.395L441.232 102.157L442.177 103.919C445.081 102.361 447.42 100.248 449.15 97.5813L447.472 96.4929ZM441.232 102.157L440.32 100.377C438.013 101.559 435.356 102.173 432.304 102.173V104.173V106.173C435.908 106.173 439.203 105.443 442.143 103.937L441.232 102.157ZM434.608 92.5569V94.5569C438.611 94.5569 442.008 93.2246 444.606 90.4741L443.152 89.1009L441.698 87.7276C439.943 89.5851 437.645 90.5569 434.608 90.5569V92.5569ZM443.152 89.1009L444.624 90.4541C447.192 87.6604 448.416 84.1114 448.416 79.9809H446.416H444.416C444.416 83.2743 443.464 85.8054 441.679 87.7476L443.152 89.1009ZM446.416 79.9809H448.416C448.416 77.2613 447.841 74.7757 446.631 72.5827L444.88 73.5489L443.129 74.515C443.967 76.034 444.416 77.8365 444.416 79.9809H446.416ZM444.88 73.5489L446.669 72.6545C445.539 70.3963 443.893 68.6244 441.744 67.3964L440.752 69.1329L439.759 70.8694C441.194 71.6893 442.3 72.8615 443.091 74.4433L444.88 73.5489ZM440.752 69.1329L441.817 67.4404C439.722 66.1211 437.291 65.5009 434.608 65.5009V67.5009V69.5009C436.66 69.5009 438.325 69.9687 439.686 70.8254L440.752 69.1329ZM434.608 67.5009V65.5009C431.975 65.5009 429.561 66.1268 427.426 67.4233L428.464 69.1329L429.502 70.8425C430.95 69.963 432.632 69.5009 434.608 69.5009V67.5009ZM428.464 69.1329L427.444 67.4123C425.375 68.6385 423.753 70.3925 422.571 72.6077L424.336 73.5489L426.1 74.4901C426.967 72.8653 428.097 71.6753 429.483 70.8535L428.464 69.1329ZM424.336 73.5489L422.559 72.63C421.43 74.8133 420.896 77.2816 420.896 79.9809H422.896H424.896C424.896 77.8162 425.321 75.9965 426.112 74.4677L424.336 73.5489ZM422.896 79.9809H420.896C420.896 82.7369 421.427 85.2597 422.547 87.4993L424.336 86.6049L426.125 85.7105C425.324 84.1101 424.896 82.2169 424.896 79.9809H422.896ZM424.336 86.6049L422.585 87.571C423.766 89.7115 425.373 91.4381 427.398 92.7134L428.464 91.0209L429.529 89.3284C428.099 88.4277 426.954 87.2103 426.087 85.6387L424.336 86.6049ZM428.464 91.0209L427.471 92.7574C429.6 93.9735 431.997 94.5569 434.608 94.5569V92.5569V90.5569C432.61 90.5569 430.912 90.1163 429.456 89.2844L428.464 91.0209ZM445.744 103.213H447.744V90.7329H445.744H443.744V103.213H445.744ZM445.744 90.7329L447.713 91.0833L449.729 79.7553L447.76 79.4049L445.791 79.0545L443.775 90.3825L445.744 90.7329ZM447.76 79.4049L449.728 79.0486L447.712 67.9126L445.744 68.2689L443.776 68.6252L445.792 79.7612L447.76 79.4049ZM445.744 68.2689H447.744V56.8449H445.744H443.744V68.2689H445.744ZM445.744 56.8449V58.8449H458.224V56.8449V54.8449H445.744V56.8449ZM458.224 56.8449H456.224V103.213H458.224H460.224V56.8449H458.224ZM458.224 103.213V101.213H445.744V103.213V105.213H458.224V103.213Z" fill="black" mask="url(#path-6-outside-1_395_490)"/>
<defs>
<linearGradient id="paint0_linear_395_490" x1="196.538" y1="1.27949" x2="398.461" y2="45.125" gradientUnits="userSpaceOnUse">
<stop stop-color="#7C7B7B"/>
<stop offset="0.131098" stop-color="#999999"/>
</linearGradient>
<linearGradient id="paint1_linear_395_490" x1="197.693" y1="34.3533" x2="400.385" y2="75.8925" gradientUnits="userSpaceOnUse">
<stop stop-color="#444444"/>
<stop offset="0.408937" stop-color="#999999"/>
</linearGradient>
<linearGradient id="paint2_linear_395_490" x1="203.461" y1="35.8942" x2="401.154" y2="102.817" gradientUnits="userSpaceOnUse">
<stop offset="0.125" stop-color="#444444"/>
<stop offset="0.576923" stop-color="#999999"/>
</linearGradient>
<linearGradient id="paint3_linear_395_490" x1="206.538" y1="133.865" x2="419.231" y2="133.865" gradientUnits="userSpaceOnUse">
<stop offset="0.182692" stop-color="#444444"/>
<stop offset="0.581731" stop-color="#999999"/>
</linearGradient>
<linearGradient id="paint4_linear_395_490" x1="206.538" y1="155.218" x2="419.231" y2="155.218" gradientUnits="userSpaceOnUse">
<stop offset="0.344995" stop-color="#444444"/>
<stop offset="0.865385" stop-color="#999999"/>
</linearGradient>
</defs>
</svg>
