<svg width="464" height="160" viewBox="0 0 464 160" fill="none" xmlns="http://www.w3.org/2000/svg">
<path d="M177 40.6976C180.201 38.2196 183.357 35.9542 186.454 33.8821C200.832 24.2139 216.685 16.4026 232.594 12.4461C248.462 8.30667 265.116 9.73358 280.364 16.114C310.797 27.429 337.933 59.9107 380.019 53.088C384.361 52.2743 388.415 51.0906 392.569 49.4777C394.499 48.7321 396.038 47.2533 396.837 45.3438C397.636 43.4357 397.63 41.2534 396.829 39.2995C396.028 37.3456 394.501 35.7867 392.593 34.9883C390.684 34.1887 388.55 34.2149 386.651 35.0388C386.651 35.0388 386.651 35.0388 386.651 35.0388C383.393 36.4542 380.284 37.5019 376.981 38.2639C346.427 45.8485 317.972 18.2255 284.281 5.91735C267.367 -0.544026 247.524 -2.2189 230.072 3.42943C212.463 8.88158 197.856 20.4184 185.287 32.435C182.58 35.0425 179.824 37.7973 177 40.6976Z" fill="url(#paint0_linear_395_475)"/>
<path d="M183.242 38.7453C183.242 38.7453 183.242 38.7453 183.242 38.7453C186.822 37.3641 190.304 36.1594 193.681 35.1065C205.9 31.2584 218.213 28.7112 230.587 27.6158C250.335 25.6341 269.541 30.6034 286.484 40.7182C313.247 56.811 342.128 82.2001 379.029 81.0359C383.095 81.0382 386.776 80.8469 390.824 80.4387C392.677 80.2533 394.368 79.338 395.521 77.8751C396.674 76.4133 397.196 74.5238 396.973 72.6412C396.751 70.7586 395.803 69.0427 394.341 67.89C392.878 66.7362 391.021 66.2402 389.176 66.4919C389.176 66.4919 389.176 66.4919 389.176 66.4919C385.607 66.9748 382.384 67.2618 378.84 67.3791C347.195 69.6147 320.983 48.3582 291.37 31.8294C272.949 21.6796 250.518 16.9276 229.718 20.6478C216.589 22.7659 204.542 27.7181 193.035 33.5237C189.858 35.1453 186.6 36.8889 183.242 38.7453Z" fill="url(#paint1_linear_395_475)"/>
<path d="M195.725 37.9668C195.725 37.9668 195.725 37.9668 195.725 37.9668C199.337 37.3574 202.66 36.9176 206.182 36.5651C237.941 32.4287 268.101 44.5492 291.422 64.9472C314.79 84.6795 342.769 106.92 376.923 109.448C380.75 109.843 384.205 110.056 388.049 110.138C389.912 110.18 391.698 109.477 393.014 108.159C394.331 106.843 395.071 105.02 395.071 103.116C395.071 101.211 394.331 99.3883 393.014 98.0721C391.698 96.7546 389.912 96.0516 388.049 96.0936C388.049 96.0936 388.049 96.0936 388.049 96.0936C384.591 96.1681 381.494 96.1198 378.074 95.9068C347.795 94.8959 322.502 76.478 297.057 57.4703C271.823 37.661 236.97 28.2231 206.042 35.611C202.546 36.293 199.272 37.0522 195.725 37.9668Z" fill="url(#paint2_linear_395_475)"/>
<path d="M184.413 41.0887C184.413 41.0887 184.413 41.0887 184.413 41.0887C188.377 40.5776 192.047 40.2508 195.893 40.0545C230.779 37.1975 263.074 54.0552 286.115 78.8381C309.362 101.975 333.896 135.272 374.482 136.37C378.802 136.546 382.801 136.427 387.12 136.021C389.285 135.825 391.253 134.774 392.586 133.057C393.919 131.342 394.508 129.102 394.228 126.872C393.948 124.642 392.824 122.617 391.108 121.285C389.392 119.951 387.225 119.419 385.078 119.764C385.078 119.764 385.078 119.764 385.078 119.764C381.492 120.341 378.205 120.673 374.672 120.763C342.653 122.684 317.695 95.32 291.966 72.5591C266.572 48.6429 230.333 33.4678 195.817 39.1959C191.973 39.6816 188.33 40.2954 184.413 41.0887Z" fill="url(#paint3_linear_395_475)"/>
<path d="M191.824 41.4766C195.8 41.6497 199.445 42.0376 203.321 42.6856C238.409 48.1793 261.841 75.9937 283.877 101.942C305.593 127.5 332.99 158.128 372.29 159.596C376.556 159.824 380.505 159.773 384.773 159.462C386.631 159.328 388.347 158.461 389.541 157.031C390.736 155.603 391.311 153.73 391.143 151.844C390.974 149.957 390.076 148.216 388.647 147.022C387.219 145.827 385.376 145.277 383.524 145.474C383.524 145.474 383.524 145.474 383.524 145.474C379.846 145.863 376.472 146.02 372.845 145.937C340.164 145.98 314.635 120.106 291.405 95.1449C268.294 70.2631 239.277 43.526 203.448 41.6384C199.484 41.346 195.8 41.3117 191.824 41.4766Z" fill="url(#paint4_linear_395_475)"/>
<mask id="path-6-outside-1_395_475" maskUnits="userSpaceOnUse" x="4" y="29.0078" width="457" height="75" fill="black">
<rect fill="white" x="4" y="29.0078" width="457" height="75"/>
<path d="M6.912 101.008V33.5198H19.968V101.008H6.912ZM16.512 101.008V89.3918H50.88V101.008H16.512ZM77.085 101.968C72.861 101.968 69.053 100.912 65.661 98.7998C62.269 96.6878 59.613 93.8078 57.693 90.1598C55.773 86.5118 54.813 82.4158 54.813 77.8718C54.813 73.2638 55.773 69.1358 57.693 65.4878C59.613 61.8398 62.269 58.9598 65.661 56.8478C69.053 54.7358 72.861 53.6798 77.085 53.6798C80.413 53.6798 83.389 54.3518 86.013 55.6958C88.637 57.0398 90.717 58.9278 92.253 61.3598C93.853 63.7278 94.717 66.4158 94.845 69.4238V86.1278C94.717 89.1998 93.853 91.9198 92.253 94.2878C90.717 96.6558 88.637 98.5438 86.013 99.9518C83.389 101.296 80.413 101.968 77.085 101.968ZM79.389 90.3518C82.909 90.3518 85.757 89.1998 87.933 86.8958C90.109 84.5278 91.197 81.4878 91.197 77.7758C91.197 75.3438 90.685 73.1998 89.661 71.3438C88.701 69.4238 87.325 67.9518 85.533 66.9278C83.805 65.8398 81.757 65.2958 79.389 65.2958C77.085 65.2958 75.037 65.8398 73.245 66.9278C71.517 67.9518 70.141 69.4238 69.117 71.3438C68.157 73.1998 67.677 75.3438 67.677 77.7758C67.677 80.2718 68.157 82.4798 69.117 84.3998C70.141 86.2558 71.517 87.7278 73.245 88.8158C75.037 89.8398 77.085 90.3518 79.389 90.3518ZM90.525 101.008V88.5278L92.541 77.1998L90.525 66.0638V54.6398H103.005V101.008H90.525ZM139.859 101.968C136.531 101.968 133.523 101.264 130.835 99.8558C128.147 98.4478 126.003 96.5278 124.403 94.0958C122.803 91.6638 121.939 88.9438 121.811 85.9358V69.4238C121.939 66.4158 122.803 63.7278 124.403 61.3598C126.067 58.9278 128.243 57.0398 130.931 55.6958C133.619 54.3518 136.595 53.6798 139.859 53.6798C144.147 53.6798 147.987 54.7358 151.379 56.8478C154.771 58.9598 157.427 61.8398 159.347 65.4878C161.331 69.1358 162.323 73.2638 162.323 77.8718C162.323 82.4158 161.331 86.5118 159.347 90.1598C157.427 93.8078 154.771 96.6878 151.379 98.7998C147.987 100.912 144.147 101.968 139.859 101.968ZM114.131 101.008V31.5998H126.707V66.0638L124.595 77.1998L126.611 88.5278V101.008H114.131ZM137.747 90.3518C140.051 90.3518 142.067 89.8398 143.795 88.8158C145.587 87.7278 146.963 86.2558 147.923 84.3998C148.947 82.4798 149.459 80.2718 149.459 77.7758C149.459 75.3438 148.947 73.1998 147.923 71.3438C146.963 69.4238 145.587 67.9518 143.795 66.9278C142.003 65.8398 139.955 65.2958 137.651 65.2958C135.347 65.2958 133.299 65.8398 131.507 66.9278C129.779 67.9518 128.403 69.4238 127.379 71.3438C126.419 73.1998 125.939 75.3438 125.939 77.7758C125.939 80.2718 126.419 82.4798 127.379 84.3998C128.403 86.2558 129.811 87.7278 131.603 88.8158C133.395 89.8398 135.443 90.3518 137.747 90.3518ZM203.208 101.968C198.28 101.968 193.704 101.104 189.48 99.3758C185.256 97.5838 181.544 95.1198 178.344 91.9838C175.208 88.7838 172.776 85.0718 171.048 80.8478C169.384 76.6238 168.552 72.0798 168.552 67.2158C168.552 62.3518 169.384 57.8078 171.048 53.5838C172.776 49.3598 175.208 45.6798 178.344 42.5438C181.544 39.4078 185.224 36.9438 189.384 35.1518C193.608 33.3598 198.216 32.4638 203.208 32.4638C208.584 32.4638 213.32 33.3598 217.416 35.1518C221.512 36.8798 225.128 39.2798 228.264 42.3518L219.432 51.1838C217.576 49.1358 215.304 47.5358 212.616 46.3838C209.928 45.2318 206.792 44.6558 203.208 44.6558C200.072 44.6558 197.192 45.1998 194.568 46.2878C192.008 47.3118 189.768 48.8478 187.848 50.8958C185.928 52.8798 184.456 55.2798 183.432 58.0958C182.408 60.8478 181.896 63.8878 181.896 67.2158C181.896 70.6078 182.408 73.6798 183.432 76.4318C184.456 79.1838 185.928 81.5838 187.848 83.6318C189.768 85.6158 192.008 87.1518 194.568 88.2398C197.192 89.3278 200.072 89.8718 203.208 89.8718C206.984 89.8718 210.216 89.2958 212.904 88.1438C215.656 86.9918 217.96 85.3598 219.816 83.2478L228.648 92.0798C225.512 95.2158 221.864 97.6478 217.704 99.3758C213.544 101.104 208.712 101.968 203.208 101.968ZM236.381 101.008V54.6398H248.957V101.008H236.381ZM248.957 75.3758L244.061 72.1118C244.637 66.4158 246.301 61.9358 249.053 58.6718C251.805 55.3438 255.773 53.6798 260.957 53.6798C263.197 53.6798 265.213 54.0638 267.005 54.8318C268.797 55.5358 270.429 56.7198 271.901 58.3838L264.029 67.4078C263.325 66.6398 262.461 66.0638 261.437 65.6798C260.477 65.2958 259.357 65.1038 258.077 65.1038C255.389 65.1038 253.181 65.9678 251.453 67.6958C249.789 69.3598 248.957 71.9198 248.957 75.3758ZM296.798 101.968C292.126 101.968 287.902 100.912 284.126 98.7998C280.414 96.6238 277.438 93.7118 275.198 90.0638C273.022 86.3518 271.934 82.2238 271.934 77.6798C271.934 73.1358 273.022 69.0718 275.198 65.4878C277.374 61.8398 280.35 58.9598 284.126 56.8478C287.902 54.6718 292.094 53.5838 296.702 53.5838C301.438 53.5838 305.662 54.6718 309.374 56.8478C313.15 58.9598 316.126 61.8398 318.302 65.4878C320.478 69.0718 321.566 73.1358 321.566 77.6798C321.566 82.2238 320.478 86.3518 318.302 90.0638C316.126 93.7118 313.15 96.6238 309.374 98.7998C305.662 100.912 301.47 101.968 296.798 101.968ZM296.702 90.2558C299.07 90.2558 301.15 89.7438 302.942 88.7198C304.798 87.6318 306.206 86.1598 307.166 84.3038C308.19 82.3838 308.702 80.2078 308.702 77.7758C308.702 75.3438 308.19 73.1998 307.166 71.3438C306.142 69.4878 304.734 68.0478 302.942 67.0238C301.15 65.9358 299.07 65.3918 296.702 65.3918C294.398 65.3918 292.35 65.9358 290.558 67.0238C288.766 68.0478 287.358 69.4878 286.334 71.3438C285.31 73.1998 284.798 75.3438 284.798 77.7758C284.798 80.2078 285.31 82.3838 286.334 84.3038C287.358 86.1598 288.766 87.6318 290.558 88.7198C292.35 89.7438 294.398 90.2558 296.702 90.2558ZM329.662 101.008V54.6398H342.238V101.008H329.662ZM359.902 101.008V73.6478C359.902 70.9598 359.038 68.8798 357.31 67.4078C355.646 65.8718 353.566 65.1038 351.07 65.1038C349.406 65.1038 347.902 65.4558 346.558 66.1598C345.214 66.7998 344.158 67.7598 343.39 69.0398C342.622 70.3198 342.238 71.8558 342.238 73.6478L337.342 71.2478C337.342 67.6638 338.11 64.5598 339.646 61.9358C341.246 59.3118 343.39 57.2958 346.078 55.8878C348.766 54.4158 351.806 53.6798 355.198 53.6798C358.398 53.6798 361.31 54.4158 363.934 55.8878C366.558 57.2958 368.638 59.3118 370.174 61.9358C371.71 64.4958 372.478 67.5998 372.478 71.2478V101.008H359.902ZM390.142 101.008V73.6478C390.142 70.9598 389.278 68.8798 387.55 67.4078C385.886 65.8718 383.806 65.1038 381.31 65.1038C379.71 65.1038 378.206 65.4558 376.798 66.1598C375.454 66.7998 374.398 67.7598 373.63 69.0398C372.862 70.3198 372.478 71.8558 372.478 73.6478L365.278 71.9198C365.534 68.2078 366.526 65.0078 368.254 62.3198C369.982 59.5678 372.254 57.4558 375.07 55.9838C377.886 54.4478 381.022 53.6798 384.478 53.6798C387.934 53.6798 391.038 54.4158 393.79 55.8878C396.542 57.2958 398.718 59.3438 400.318 62.0318C401.918 64.7198 402.718 67.9198 402.718 71.6318V101.008H390.142ZM432.304 101.968C428.08 101.968 424.272 100.912 420.88 98.7998C417.488 96.6878 414.832 93.8078 412.912 90.1598C410.992 86.5118 410.032 82.4158 410.032 77.8718C410.032 73.2638 410.992 69.1358 412.912 65.4878C414.832 61.8398 417.488 58.9598 420.88 56.8478C424.272 54.7358 428.08 53.6798 432.304 53.6798C435.632 53.6798 438.608 54.3518 441.232 55.6958C443.856 57.0398 445.936 58.9278 447.472 61.3598C449.072 63.7278 449.936 66.4158 450.064 69.4238V86.1278C449.936 89.1998 449.072 91.9198 447.472 94.2878C445.936 96.6558 443.856 98.5438 441.232 99.9518C438.608 101.296 435.632 101.968 432.304 101.968ZM434.608 90.3518C438.128 90.3518 440.976 89.1998 443.152 86.8958C445.328 84.5278 446.416 81.4878 446.416 77.7758C446.416 75.3438 445.904 73.1998 444.88 71.3438C443.92 69.4238 442.544 67.9518 440.752 66.9278C439.024 65.8398 436.976 65.2958 434.608 65.2958C432.304 65.2958 430.256 65.8398 428.464 66.9278C426.736 67.9518 425.36 69.4238 424.336 71.3438C423.376 73.1998 422.896 75.3438 422.896 77.7758C422.896 80.2718 423.376 82.4798 424.336 84.3998C425.36 86.2558 426.736 87.7278 428.464 88.8158C430.256 89.8398 432.304 90.3518 434.608 90.3518ZM445.744 101.008V88.5278L447.76 77.1998L445.744 66.0638V54.6398H458.224V101.008H445.744Z"/>
</mask>
<path d="M6.912 101.008V33.5198H19.968V101.008H6.912ZM16.512 101.008V89.3918H50.88V101.008H16.512ZM77.085 101.968C72.861 101.968 69.053 100.912 65.661 98.7998C62.269 96.6878 59.613 93.8078 57.693 90.1598C55.773 86.5118 54.813 82.4158 54.813 77.8718C54.813 73.2638 55.773 69.1358 57.693 65.4878C59.613 61.8398 62.269 58.9598 65.661 56.8478C69.053 54.7358 72.861 53.6798 77.085 53.6798C80.413 53.6798 83.389 54.3518 86.013 55.6958C88.637 57.0398 90.717 58.9278 92.253 61.3598C93.853 63.7278 94.717 66.4158 94.845 69.4238V86.1278C94.717 89.1998 93.853 91.9198 92.253 94.2878C90.717 96.6558 88.637 98.5438 86.013 99.9518C83.389 101.296 80.413 101.968 77.085 101.968ZM79.389 90.3518C82.909 90.3518 85.757 89.1998 87.933 86.8958C90.109 84.5278 91.197 81.4878 91.197 77.7758C91.197 75.3438 90.685 73.1998 89.661 71.3438C88.701 69.4238 87.325 67.9518 85.533 66.9278C83.805 65.8398 81.757 65.2958 79.389 65.2958C77.085 65.2958 75.037 65.8398 73.245 66.9278C71.517 67.9518 70.141 69.4238 69.117 71.3438C68.157 73.1998 67.677 75.3438 67.677 77.7758C67.677 80.2718 68.157 82.4798 69.117 84.3998C70.141 86.2558 71.517 87.7278 73.245 88.8158C75.037 89.8398 77.085 90.3518 79.389 90.3518ZM90.525 101.008V88.5278L92.541 77.1998L90.525 66.0638V54.6398H103.005V101.008H90.525ZM139.859 101.968C136.531 101.968 133.523 101.264 130.835 99.8558C128.147 98.4478 126.003 96.5278 124.403 94.0958C122.803 91.6638 121.939 88.9438 121.811 85.9358V69.4238C121.939 66.4158 122.803 63.7278 124.403 61.3598C126.067 58.9278 128.243 57.0398 130.931 55.6958C133.619 54.3518 136.595 53.6798 139.859 53.6798C144.147 53.6798 147.987 54.7358 151.379 56.8478C154.771 58.9598 157.427 61.8398 159.347 65.4878C161.331 69.1358 162.323 73.2638 162.323 77.8718C162.323 82.4158 161.331 86.5118 159.347 90.1598C157.427 93.8078 154.771 96.6878 151.379 98.7998C147.987 100.912 144.147 101.968 139.859 101.968ZM114.131 101.008V31.5998H126.707V66.0638L124.595 77.1998L126.611 88.5278V101.008H114.131ZM137.747 90.3518C140.051 90.3518 142.067 89.8398 143.795 88.8158C145.587 87.7278 146.963 86.2558 147.923 84.3998C148.947 82.4798 149.459 80.2718 149.459 77.7758C149.459 75.3438 148.947 73.1998 147.923 71.3438C146.963 69.4238 145.587 67.9518 143.795 66.9278C142.003 65.8398 139.955 65.2958 137.651 65.2958C135.347 65.2958 133.299 65.8398 131.507 66.9278C129.779 67.9518 128.403 69.4238 127.379 71.3438C126.419 73.1998 125.939 75.3438 125.939 77.7758C125.939 80.2718 126.419 82.4798 127.379 84.3998C128.403 86.2558 129.811 87.7278 131.603 88.8158C133.395 89.8398 135.443 90.3518 137.747 90.3518ZM203.208 101.968C198.28 101.968 193.704 101.104 189.48 99.3758C185.256 97.5838 181.544 95.1198 178.344 91.9838C175.208 88.7838 172.776 85.0718 171.048 80.8478C169.384 76.6238 168.552 72.0798 168.552 67.2158C168.552 62.3518 169.384 57.8078 171.048 53.5838C172.776 49.3598 175.208 45.6798 178.344 42.5438C181.544 39.4078 185.224 36.9438 189.384 35.1518C193.608 33.3598 198.216 32.4638 203.208 32.4638C208.584 32.4638 213.32 33.3598 217.416 35.1518C221.512 36.8798 225.128 39.2798 228.264 42.3518L219.432 51.1838C217.576 49.1358 215.304 47.5358 212.616 46.3838C209.928 45.2318 206.792 44.6558 203.208 44.6558C200.072 44.6558 197.192 45.1998 194.568 46.2878C192.008 47.3118 189.768 48.8478 187.848 50.8958C185.928 52.8798 184.456 55.2798 183.432 58.0958C182.408 60.8478 181.896 63.8878 181.896 67.2158C181.896 70.6078 182.408 73.6798 183.432 76.4318C184.456 79.1838 185.928 81.5838 187.848 83.6318C189.768 85.6158 192.008 87.1518 194.568 88.2398C197.192 89.3278 200.072 89.8718 203.208 89.8718C206.984 89.8718 210.216 89.2958 212.904 88.1438C215.656 86.9918 217.96 85.3598 219.816 83.2478L228.648 92.0798C225.512 95.2158 221.864 97.6478 217.704 99.3758C213.544 101.104 208.712 101.968 203.208 101.968ZM236.381 101.008V54.6398H248.957V101.008H236.381ZM248.957 75.3758L244.061 72.1118C244.637 66.4158 246.301 61.9358 249.053 58.6718C251.805 55.3438 255.773 53.6798 260.957 53.6798C263.197 53.6798 265.213 54.0638 267.005 54.8318C268.797 55.5358 270.429 56.7198 271.901 58.3838L264.029 67.4078C263.325 66.6398 262.461 66.0638 261.437 65.6798C260.477 65.2958 259.357 65.1038 258.077 65.1038C255.389 65.1038 253.181 65.9678 251.453 67.6958C249.789 69.3598 248.957 71.9198 248.957 75.3758ZM296.798 101.968C292.126 101.968 287.902 100.912 284.126 98.7998C280.414 96.6238 277.438 93.7118 275.198 90.0638C273.022 86.3518 271.934 82.2238 271.934 77.6798C271.934 73.1358 273.022 69.0718 275.198 65.4878C277.374 61.8398 280.35 58.9598 284.126 56.8478C287.902 54.6718 292.094 53.5838 296.702 53.5838C301.438 53.5838 305.662 54.6718 309.374 56.8478C313.15 58.9598 316.126 61.8398 318.302 65.4878C320.478 69.0718 321.566 73.1358 321.566 77.6798C321.566 82.2238 320.478 86.3518 318.302 90.0638C316.126 93.7118 313.15 96.6238 309.374 98.7998C305.662 100.912 301.47 101.968 296.798 101.968ZM296.702 90.2558C299.07 90.2558 301.15 89.7438 302.942 88.7198C304.798 87.6318 306.206 86.1598 307.166 84.3038C308.19 82.3838 308.702 80.2078 308.702 77.7758C308.702 75.3438 308.19 73.1998 307.166 71.3438C306.142 69.4878 304.734 68.0478 302.942 67.0238C301.15 65.9358 299.07 65.3918 296.702 65.3918C294.398 65.3918 292.35 65.9358 290.558 67.0238C288.766 68.0478 287.358 69.4878 286.334 71.3438C285.31 73.1998 284.798 75.3438 284.798 77.7758C284.798 80.2078 285.31 82.3838 286.334 84.3038C287.358 86.1598 288.766 87.6318 290.558 88.7198C292.35 89.7438 294.398 90.2558 296.702 90.2558ZM329.662 101.008V54.6398H342.238V101.008H329.662ZM359.902 101.008V73.6478C359.902 70.9598 359.038 68.8798 357.31 67.4078C355.646 65.8718 353.566 65.1038 351.07 65.1038C349.406 65.1038 347.902 65.4558 346.558 66.1598C345.214 66.7998 344.158 67.7598 343.39 69.0398C342.622 70.3198 342.238 71.8558 342.238 73.6478L337.342 71.2478C337.342 67.6638 338.11 64.5598 339.646 61.9358C341.246 59.3118 343.39 57.2958 346.078 55.8878C348.766 54.4158 351.806 53.6798 355.198 53.6798C358.398 53.6798 361.31 54.4158 363.934 55.8878C366.558 57.2958 368.638 59.3118 370.174 61.9358C371.71 64.4958 372.478 67.5998 372.478 71.2478V101.008H359.902ZM390.142 101.008V73.6478C390.142 70.9598 389.278 68.8798 387.55 67.4078C385.886 65.8718 383.806 65.1038 381.31 65.1038C379.71 65.1038 378.206 65.4558 376.798 66.1598C375.454 66.7998 374.398 67.7598 373.63 69.0398C372.862 70.3198 372.478 71.8558 372.478 73.6478L365.278 71.9198C365.534 68.2078 366.526 65.0078 368.254 62.3198C369.982 59.5678 372.254 57.4558 375.07 55.9838C377.886 54.4478 381.022 53.6798 384.478 53.6798C387.934 53.6798 391.038 54.4158 393.79 55.8878C396.542 57.2958 398.718 59.3438 400.318 62.0318C401.918 64.7198 402.718 67.9198 402.718 71.6318V101.008H390.142ZM432.304 101.968C428.08 101.968 424.272 100.912 420.88 98.7998C417.488 96.6878 414.832 93.8078 412.912 90.1598C410.992 86.5118 410.032 82.4158 410.032 77.8718C410.032 73.2638 410.992 69.1358 412.912 65.4878C414.832 61.8398 417.488 58.9598 420.88 56.8478C424.272 54.7358 428.08 53.6798 432.304 53.6798C435.632 53.6798 438.608 54.3518 441.232 55.6958C443.856 57.0398 445.936 58.9278 447.472 61.3598C449.072 63.7278 449.936 66.4158 450.064 69.4238V86.1278C449.936 89.1998 449.072 91.9198 447.472 94.2878C445.936 96.6558 443.856 98.5438 441.232 99.9518C438.608 101.296 435.632 101.968 432.304 101.968ZM434.608 90.3518C438.128 90.3518 440.976 89.1998 443.152 86.8958C445.328 84.5278 446.416 81.4878 446.416 77.7758C446.416 75.3438 445.904 73.1998 444.88 71.3438C443.92 69.4238 442.544 67.9518 440.752 66.9278C439.024 65.8398 436.976 65.2958 434.608 65.2958C432.304 65.2958 430.256 65.8398 428.464 66.9278C426.736 67.9518 425.36 69.4238 424.336 71.3438C423.376 73.1998 422.896 75.3438 422.896 77.7758C422.896 80.2718 423.376 82.4798 424.336 84.3998C425.36 86.2558 426.736 87.7278 428.464 88.8158C430.256 89.8398 432.304 90.3518 434.608 90.3518ZM445.744 101.008V88.5278L447.76 77.1998L445.744 66.0638V54.6398H458.224V101.008H445.744Z" fill="white"/>
<path d="M6.912 101.008H4.912V103.008H6.912V101.008ZM6.912 33.5198V31.5198H4.912V33.5198H6.912ZM19.968 33.5198H21.968V31.5198H19.968V33.5198ZM19.968 101.008V103.008H21.968V101.008H19.968ZM16.512 101.008H14.512V103.008H16.512V101.008ZM16.512 89.3918V87.3918H14.512V89.3918H16.512ZM50.88 89.3918H52.88V87.3918H50.88V89.3918ZM50.88 101.008V103.008H52.88V101.008H50.88ZM6.912 101.008H8.912V33.5198H6.912H4.912V101.008H6.912ZM6.912 33.5198V35.5198H19.968V33.5198V31.5198H6.912V33.5198ZM19.968 33.5198H17.968V101.008H19.968H21.968V33.5198H19.968ZM19.968 101.008V99.0078H6.912V101.008V103.008H19.968V101.008ZM16.512 101.008H18.512V89.3918H16.512H14.512V101.008H16.512ZM16.512 89.3918V91.3918H50.88V89.3918V87.3918H16.512V89.3918ZM50.88 89.3918H48.88V101.008H50.88H52.88V89.3918H50.88ZM50.88 101.008V99.0078H16.512V101.008V103.008H50.88V101.008ZM65.661 98.7998L64.6039 100.498V100.498L65.661 98.7998ZM57.693 90.1598L59.4628 89.2283L57.693 90.1598ZM57.693 65.4878L59.4628 66.4193V66.4193L57.693 65.4878ZM65.661 56.8478L66.7181 58.5456V58.5456L65.661 56.8478ZM92.253 61.3598L90.562 62.4278L90.5785 62.4539L90.5958 62.4795L92.253 61.3598ZM94.845 69.4238H96.845V69.3813L96.8432 69.3388L94.845 69.4238ZM94.845 86.1278L96.8433 86.2111L96.845 86.1695V86.1278H94.845ZM92.253 94.2878L90.5958 93.1681L90.5853 93.1837L90.5751 93.1994L92.253 94.2878ZM86.013 99.9518L86.9248 101.732L86.9418 101.723L86.9586 101.714L86.013 99.9518ZM87.933 86.8958L89.387 88.2691L89.3964 88.2591L89.4057 88.2491L87.933 86.8958ZM89.661 71.3438L87.8721 72.2382L87.8903 72.2745L87.9099 72.31L89.661 71.3438ZM85.533 66.9278L84.4674 68.6203L84.5036 68.6431L84.5407 68.6643L85.533 66.9278ZM73.245 66.9278L74.2646 68.6484L74.2738 68.6429L74.283 68.6374L73.245 66.9278ZM69.117 71.3438L67.3523 70.4026L67.3464 70.4138L67.3406 70.425L69.117 71.3438ZM69.117 84.3998L67.3281 85.2942L67.3463 85.3305L67.3658 85.366L69.117 84.3998ZM73.245 88.8158L72.1794 90.5083L72.2156 90.5311L72.2527 90.5523L73.245 88.8158ZM90.525 101.008H88.525V103.008H90.525V101.008ZM90.525 88.5278L88.5559 88.1774L88.525 88.3512V88.5278H90.525ZM92.541 77.1998L94.5101 77.5502L94.573 77.1968L94.509 76.8435L92.541 77.1998ZM90.525 66.0638H88.525V66.2434L88.557 66.4201L90.525 66.0638ZM90.525 54.6398V52.6398H88.525V54.6398H90.525ZM103.005 54.6398H105.005V52.6398H103.005V54.6398ZM103.005 101.008V103.008H105.005V101.008H103.005ZM77.085 101.968V99.9678C73.2124 99.9678 69.7745 99.005 66.7181 97.102L65.661 98.7998L64.6039 100.498C68.3315 102.819 72.5096 103.968 77.085 103.968V101.968ZM65.661 98.7998L66.7181 97.102C63.6373 95.1838 61.223 92.5726 59.4628 89.2283L57.693 90.1598L55.9232 91.0913C58.003 95.0431 60.9007 98.1918 64.6039 100.498L65.661 98.7998ZM57.693 90.1598L59.4628 89.2283C57.709 85.896 56.813 82.1251 56.813 77.8718H54.813H52.813C52.813 82.7066 53.837 87.1276 55.9232 91.0913L57.693 90.1598ZM54.813 77.8718H56.813C56.813 73.5496 57.7111 69.7476 59.4628 66.4193L57.693 65.4878L55.9232 64.5563C53.8349 68.524 52.813 72.978 52.813 77.8718H54.813ZM57.693 65.4878L59.4628 66.4193C61.223 63.0751 63.6373 60.4638 66.7181 58.5456L65.661 56.8478L64.6039 55.15C60.9007 57.4558 58.003 60.6046 55.9232 64.5563L57.693 65.4878ZM65.661 56.8478L66.7181 58.5456C69.7745 56.6426 73.2124 55.6798 77.085 55.6798V53.6798V51.6798C72.5096 51.6798 68.3315 52.829 64.6039 55.15L65.661 56.8478ZM77.085 53.6798V55.6798C80.1372 55.6798 82.794 56.2941 85.1012 57.4759L86.013 55.6958L86.9248 53.9157C83.984 52.4095 80.6888 51.6798 77.085 51.6798V53.6798ZM86.013 55.6958L85.1012 57.4759C87.4148 58.6609 89.2223 60.3065 90.562 62.4278L92.253 61.3598L93.944 60.2918C92.2118 57.5491 89.8592 55.4188 86.9248 53.9157L86.013 55.6958ZM92.253 61.3598L90.5958 62.4795C91.9773 64.5241 92.7337 66.85 92.8468 69.5088L94.845 69.4238L96.8432 69.3388C96.7003 65.9817 95.7287 62.9315 93.9102 60.2401L92.253 61.3598ZM94.845 69.4238H92.845V86.1278H94.845H96.845V69.4238H94.845ZM94.845 86.1278L92.8467 86.0445C92.733 88.7753 91.9725 91.1307 90.5958 93.1681L92.253 94.2878L93.9102 95.4075C95.7335 92.709 96.701 89.6243 96.8433 86.2111L94.845 86.1278ZM92.253 94.2878L90.5751 93.1994C89.2327 95.269 87.4113 96.9318 85.0674 98.1895L86.013 99.9518L86.9586 101.714C89.8627 100.156 92.2013 98.0426 93.9309 95.3762L92.253 94.2878ZM86.013 99.9518L85.1012 98.1717C82.794 99.3535 80.1372 99.9678 77.085 99.9678V101.968V103.968C80.6888 103.968 83.984 103.238 86.9248 101.732L86.013 99.9518ZM79.389 90.3518V92.3518C83.3919 92.3518 86.7893 91.0196 89.387 88.2691L87.933 86.8958L86.479 85.5226C84.7247 87.3801 82.4261 88.3518 79.389 88.3518V90.3518ZM87.933 86.8958L89.4057 88.2491C91.9729 85.4553 93.197 81.9064 93.197 77.7758H91.197H89.197C89.197 81.0693 88.2451 83.6003 86.4603 85.5426L87.933 86.8958ZM91.197 77.7758H93.197C93.197 75.0562 92.6221 72.5706 91.4122 70.3777L89.661 71.3438L87.9099 72.31C88.7479 73.829 89.197 75.6314 89.197 77.7758H91.197ZM89.661 71.3438L91.4499 70.4494C90.3208 68.1912 88.6743 66.4194 86.5253 65.1913L85.533 66.9278L84.5407 68.6643C85.9757 69.4843 87.0813 70.6564 87.8721 72.2382L89.661 71.3438ZM85.533 66.9278L86.5986 65.2353C84.5033 63.916 82.0727 63.2958 79.389 63.2958V65.2958V67.2958C81.4413 67.2958 83.1067 67.7636 84.4674 68.6203L85.533 66.9278ZM79.389 65.2958V63.2958C76.7564 63.2958 74.3424 63.9217 72.207 65.2182L73.245 66.9278L74.283 68.6374C75.7316 67.7579 77.4136 67.2958 79.389 67.2958V65.2958ZM73.245 66.9278L72.2254 65.2072C70.1562 66.4334 68.5337 68.1874 67.3523 70.4026L69.117 71.3438L70.8817 72.285C71.7483 70.6602 72.8778 69.4702 74.2646 68.6484L73.245 66.9278ZM69.117 71.3438L67.3406 70.425C66.2113 72.6082 65.677 75.0765 65.677 77.7758H67.677H69.677C69.677 75.6111 70.1027 73.7914 70.8934 72.2627L69.117 71.3438ZM67.677 77.7758H65.677C65.677 80.5318 66.2083 83.0546 67.3281 85.2942L69.117 84.3998L70.9059 83.5054C70.1057 81.905 69.677 80.0118 69.677 77.7758H67.677ZM69.117 84.3998L67.3658 85.366C68.5468 87.5064 70.154 89.233 72.1794 90.5083L73.245 88.8158L74.3106 87.1233C72.88 86.2226 71.7352 85.0052 70.8682 83.4337L69.117 84.3998ZM73.245 88.8158L72.2527 90.5523C74.3809 91.7684 76.7783 92.3518 79.389 92.3518V90.3518V88.3518C77.3917 88.3518 75.6931 87.9112 74.2373 87.0793L73.245 88.8158ZM90.525 101.008H92.525V88.5278H90.525H88.525V101.008H90.525ZM90.525 88.5278L92.4941 88.8782L94.5101 77.5502L92.541 77.1998L90.5719 76.8494L88.5559 88.1774L90.525 88.5278ZM92.541 77.1998L94.509 76.8435L92.493 65.7075L90.525 66.0638L88.557 66.4201L90.573 77.5561L92.541 77.1998ZM90.525 66.0638H92.525V54.6398H90.525H88.525V66.0638H90.525ZM90.525 54.6398V56.6398H103.005V54.6398V52.6398H90.525V54.6398ZM103.005 54.6398H101.005V101.008H103.005H105.005V54.6398H103.005ZM103.005 101.008V99.0078H90.525V101.008V103.008H103.005V101.008ZM130.835 99.8558L129.906 101.627V101.627L130.835 99.8558ZM121.811 85.9358H119.811V85.9783L119.812 86.0208L121.811 85.9358ZM121.811 69.4238L119.812 69.3388L119.811 69.3813V69.4238H121.811ZM124.402 61.3598L122.752 60.2304L122.745 60.2401L124.402 61.3598ZM151.379 56.8478L150.321 58.5456V58.5456L151.379 56.8478ZM159.346 65.4878L157.577 66.4193L157.583 66.4314L157.59 66.4434L159.346 65.4878ZM159.346 90.1598L157.59 89.2043L157.583 89.2162L157.577 89.2283L159.346 90.1598ZM151.379 98.7998L150.321 97.102V97.102L151.379 98.7998ZM114.131 101.008H112.131V103.008H114.131V101.008ZM114.131 31.5998V29.5998H112.131V31.5998H114.131ZM126.706 31.5998H128.706V29.5998H126.706V31.5998ZM126.706 66.0638L128.671 66.4365L128.706 66.2518V66.0638H126.706ZM124.594 77.1998L122.63 76.8271L122.561 77.1883L122.625 77.5502L124.594 77.1998ZM126.611 88.5278H128.611V88.3512L128.58 88.1774L126.611 88.5278ZM126.611 101.008V103.008H128.611V101.008H126.611ZM143.794 88.8158L144.814 90.5364L144.823 90.5309L144.832 90.5254L143.794 88.8158ZM147.923 84.3998L146.158 83.4586L146.152 83.4698L146.146 83.481L147.923 84.3998ZM147.923 71.3438L146.134 72.2382L146.152 72.2745L146.171 72.31L147.923 71.3438ZM143.794 66.9278L142.757 68.6374L142.779 68.6511L142.802 68.6643L143.794 66.9278ZM131.507 66.9278L132.526 68.6484L132.535 68.6429L132.544 68.6374L131.507 66.9278ZM127.379 71.3438L125.614 70.4026L125.608 70.4138L125.602 70.425L127.379 71.3438ZM127.379 84.3998L125.59 85.2942L125.608 85.3305L125.627 85.366L127.379 84.3998ZM131.603 88.8158L130.565 90.5254L130.587 90.5391L130.61 90.5523L131.603 88.8158ZM139.859 101.968V99.9678C136.822 99.9678 134.137 99.328 131.763 98.0842L130.835 99.8558L129.906 101.627C132.908 103.2 136.239 103.968 139.859 103.968V101.968ZM130.835 99.8558L131.763 98.0842C129.362 96.8267 127.479 95.1328 126.073 92.9966L124.402 94.0958L122.732 95.195C124.526 97.9228 126.931 100.069 129.906 101.627L130.835 99.8558ZM124.402 94.0958L126.073 92.9966C124.679 90.8775 123.922 88.5103 123.809 85.8508L121.811 85.9358L119.812 86.0208C119.955 89.3773 120.926 92.4501 122.732 95.195L124.402 94.0958ZM121.811 85.9358H123.811V69.4238H121.811H119.811V85.9358H121.811ZM121.811 69.4238L123.809 69.5088C123.922 66.85 124.678 64.5241 126.06 62.4795L124.402 61.3598L122.745 60.2401C120.927 62.9315 119.955 65.9817 119.812 69.3388L121.811 69.4238ZM124.402 61.3598L126.053 62.4892C127.521 60.3435 129.435 58.6798 131.825 57.4847L130.93 55.6958L130.036 53.907C127.05 55.3998 124.612 57.5122 122.752 60.2304L124.402 61.3598ZM130.93 55.6958L131.825 57.4847C134.212 56.2912 136.878 55.6798 139.859 55.6798V53.6798V51.6798C136.311 51.6798 133.025 52.4124 130.036 53.907L130.93 55.6958ZM139.859 53.6798V55.6798C143.801 55.6798 147.27 56.6456 150.321 58.5456L151.379 56.8478L152.436 55.15C148.703 52.826 144.492 51.6798 139.859 51.6798V53.6798ZM151.379 56.8478L150.321 58.5456C153.402 60.4638 155.817 63.0751 157.577 66.4193L159.346 65.4878L161.116 64.5563C159.036 60.6046 156.139 57.4558 152.436 55.15L151.379 56.8478ZM159.346 65.4878L157.59 66.4434C159.397 69.767 160.323 73.5603 160.323 77.8718H162.323H164.323C164.323 72.9673 163.264 68.5046 161.103 64.5323L159.346 65.4878ZM162.323 77.8718H160.323C160.323 82.1142 159.399 85.8766 157.59 89.2043L159.346 90.1598L161.103 91.1154C163.262 87.1471 164.323 82.7174 164.323 77.8718H162.323ZM159.346 90.1598L157.577 89.2283C155.817 92.5726 153.402 95.1838 150.321 97.102L151.379 98.7998L152.436 100.498C156.139 98.1918 159.036 95.0431 161.116 91.0913L159.346 90.1598ZM151.379 98.7998L150.321 97.102C147.27 99.002 143.801 99.9678 139.859 99.9678V101.968V103.968C144.492 103.968 148.703 102.822 152.436 100.498L151.379 98.7998ZM114.131 101.008H116.131V31.5998H114.131H112.131V101.008H114.131ZM114.131 31.5998V33.5998H126.706V31.5998V29.5998H114.131V31.5998ZM126.706 31.5998H124.706V66.0638H126.706H128.706V31.5998H126.706ZM126.706 66.0638L124.742 65.6911L122.63 76.8271L124.594 77.1998L126.559 77.5725L128.671 66.4365L126.706 66.0638ZM124.594 77.1998L122.625 77.5502L124.641 88.8782L126.611 88.5278L128.58 88.1774L126.564 76.8494L124.594 77.1998ZM126.611 88.5278H124.611V101.008H126.611H128.611V88.5278H126.611ZM126.611 101.008V99.0078H114.131V101.008V103.008H126.611V101.008ZM137.747 90.3518V92.3518C140.356 92.3518 142.734 91.7688 144.814 90.5364L143.794 88.8158L142.775 87.0952C141.399 87.9108 139.745 88.3518 137.747 88.3518V90.3518ZM143.794 88.8158L144.832 90.5254C146.938 89.2473 148.57 87.5022 149.699 85.3187L147.923 84.3998L146.146 83.481C145.355 85.0094 144.236 86.2083 142.757 87.1062L143.794 88.8158ZM147.923 84.3998L149.687 85.341C150.887 83.0912 151.458 80.5514 151.458 77.7758H149.458H147.458C147.458 79.9922 147.006 81.8684 146.158 83.4586L147.923 84.3998ZM149.458 77.7758H151.458C151.458 75.0562 150.884 72.5706 149.674 70.3777L147.923 71.3438L146.171 72.31C147.009 73.829 147.458 75.6314 147.458 77.7758H149.458ZM147.923 71.3438L149.711 70.4494C148.582 68.1912 146.936 66.4194 144.787 65.1913L143.794 66.9278L142.802 68.6643C144.237 69.4843 145.343 70.6564 146.134 72.2382L147.923 71.3438ZM143.794 66.9278L144.832 65.2182C142.697 63.9217 140.283 63.2958 137.65 63.2958V65.2958V67.2958C139.626 67.2958 141.308 67.7579 142.757 68.6374L143.794 66.9278ZM137.65 65.2958V63.2958C135.018 63.2958 132.604 63.9217 130.469 65.2182L131.507 66.9278L132.544 68.6374C133.993 67.7579 135.675 67.2958 137.65 67.2958V65.2958ZM131.507 66.9278L130.487 65.2072C128.418 66.4334 126.795 68.1874 125.614 70.4026L127.379 71.3438L129.143 72.285C130.01 70.6602 131.139 69.4702 132.526 68.6484L131.507 66.9278ZM127.379 71.3438L125.602 70.425C124.473 72.6082 123.938 75.0765 123.938 77.7758H125.938H127.938C127.938 75.6111 128.364 73.7914 129.155 72.2627L127.379 71.3438ZM125.938 77.7758H123.938C123.938 80.5318 124.47 83.0546 125.59 85.2942L127.379 84.3998L129.167 83.5054C128.367 81.905 127.938 80.0118 127.938 77.7758H125.938ZM127.379 84.3998L125.627 85.366C126.818 87.5242 128.471 89.254 130.565 90.5254L131.603 88.8158L132.64 87.1062C131.15 86.2016 129.987 84.9874 129.13 83.4337L127.379 84.3998ZM131.603 88.8158L130.61 90.5523C132.738 91.7684 135.136 92.3518 137.747 92.3518V90.3518V88.3518C135.749 88.3518 134.051 87.9112 132.595 87.0793L131.603 88.8158ZM189.48 99.3758L188.699 101.217L188.711 101.222L188.723 101.227L189.48 99.3758ZM178.344 91.9838L176.916 93.3837L176.93 93.3981L176.944 93.4122L178.344 91.9838ZM171.048 80.8478L169.187 81.5809L169.192 81.593L169.197 81.6051L171.048 80.8478ZM171.048 53.5838L169.197 52.8265L169.192 52.8386L169.187 52.8508L171.048 53.5838ZM178.344 42.5438L176.944 41.1154L176.937 41.1225L176.93 41.1296L178.344 42.5438ZM189.384 35.1518L188.603 33.3106L188.593 33.315L189.384 35.1518ZM217.416 35.1518L216.614 36.9841L216.626 36.9894L216.639 36.9945L217.416 35.1518ZM228.264 42.3518L229.678 43.766L231.107 42.3372L229.664 40.9231L228.264 42.3518ZM219.432 51.1838L217.95 52.5268L219.361 54.0835L220.846 52.598L219.432 51.1838ZM212.616 46.3838L211.828 48.2221V48.2221L212.616 46.3838ZM194.568 46.2878L195.311 48.1448L195.322 48.1401L195.334 48.1353L194.568 46.2878ZM187.848 50.8958L189.285 52.2867L189.296 52.2753L189.307 52.2637L187.848 50.8958ZM183.432 58.0958L185.306 58.7933L185.309 58.7863L185.312 58.7793L183.432 58.0958ZM183.432 76.4318L181.558 77.1293V77.1293L183.432 76.4318ZM187.848 83.6318L186.389 84.9997L186.4 85.0113L186.411 85.0227L187.848 83.6318ZM194.568 88.2398L193.786 90.0805L193.794 90.0839L193.802 90.0873L194.568 88.2398ZM212.904 88.1438L212.132 86.2989L212.124 86.3022L212.116 86.3055L212.904 88.1438ZM219.816 83.2478L221.23 81.8336L219.722 80.3252L218.314 81.9276L219.816 83.2478ZM228.648 92.0798L230.062 93.494L231.476 92.0798L230.062 90.6656L228.648 92.0798ZM217.704 99.3758L218.471 101.223L217.704 99.3758ZM203.208 101.968V99.9678C198.519 99.9678 194.202 99.1468 190.237 97.5247L189.48 99.3758L188.723 101.227C193.206 103.061 198.041 103.968 203.208 103.968V101.968ZM189.48 99.3758L190.261 97.5347C186.262 95.8379 182.761 93.5121 179.744 90.5554L178.344 91.9838L176.944 93.4122C180.327 96.7275 184.25 99.3297 188.699 101.217L189.48 99.3758ZM178.344 91.9838L179.772 90.584C176.821 87.5723 174.531 84.0796 172.899 80.0905L171.048 80.8478L169.197 81.6051C171.021 86.064 173.595 89.9953 176.916 93.3837L178.344 91.9838ZM171.048 80.8478L172.909 80.1148C171.343 76.1405 170.552 71.847 170.552 67.2158H168.552H166.552C166.552 72.3127 167.425 77.1072 169.187 81.5809L171.048 80.8478ZM168.552 67.2158H170.552C170.552 62.5847 171.343 58.2912 172.909 54.3169L171.048 53.5838L169.187 52.8508C167.425 57.3245 166.552 62.119 166.552 67.2158H168.552ZM171.048 53.5838L172.899 54.3411C174.53 50.3556 176.816 46.9007 179.758 43.958L178.344 42.5438L176.93 41.1296C173.6 44.4589 171.022 48.364 169.197 52.8265L171.048 53.5838ZM178.344 42.5438L179.744 43.9722C182.766 41.0106 186.239 38.6842 190.175 36.9886L189.384 35.1518L188.593 33.315C184.209 35.2034 180.322 37.805 176.944 41.1154L178.344 42.5438ZM189.384 35.1518L190.165 36.993C194.121 35.3147 198.461 34.4638 203.208 34.4638V32.4638V30.4638C197.971 30.4638 193.095 31.4049 188.603 33.3106L189.384 35.1518ZM203.208 32.4638V34.4638C208.363 34.4638 212.817 35.3227 216.614 36.9841L217.416 35.1518L218.218 33.3195C213.823 31.3969 208.805 30.4638 203.208 30.4638V32.4638ZM217.416 35.1518L216.639 36.9945C220.506 38.6261 223.91 40.8867 226.864 43.7805L228.264 42.3518L229.664 40.9231C226.346 37.673 222.518 35.1335 218.193 33.3091L217.416 35.1518ZM228.264 42.3518L226.85 40.9376L218.018 49.7696L219.432 51.1838L220.846 52.598L229.678 43.766L228.264 42.3518ZM219.432 51.1838L220.914 49.8408C218.854 47.5674 216.34 45.8041 213.404 44.5455L212.616 46.3838L211.828 48.2221C214.268 49.2676 216.298 50.7042 217.95 52.5268L219.432 51.1838ZM212.616 46.3838L213.404 44.5455C210.417 43.2657 207.003 42.6558 203.208 42.6558V44.6558V46.6558C206.581 46.6558 209.439 47.198 211.828 48.2221L212.616 46.3838ZM203.208 44.6558V42.6558C199.837 42.6558 196.693 43.2416 193.802 44.4403L194.568 46.2878L195.334 48.1353C197.691 47.158 200.307 46.6558 203.208 46.6558V44.6558ZM194.568 46.2878L193.825 44.4309C190.989 45.5655 188.505 47.2705 186.389 49.5279L187.848 50.8958L189.307 52.2637C191.031 50.4251 193.027 49.0581 195.311 48.1448L194.568 46.2878ZM187.848 50.8958L186.411 49.505C184.279 51.7078 182.664 54.3549 181.552 57.4123L183.432 58.0958L185.312 58.7793C186.248 56.2048 187.577 54.0518 189.285 52.2867L187.848 50.8958ZM183.432 58.0958L181.558 57.3983C180.44 60.4012 179.896 63.6811 179.896 67.2158H181.896H183.896C183.896 64.0945 184.376 61.2944 185.306 58.7933L183.432 58.0958ZM181.896 67.2158H179.896C179.896 70.8095 180.439 74.1224 181.558 77.1293L183.432 76.4318L185.306 75.7343C184.377 73.2372 183.896 70.4061 183.896 67.2158H181.896ZM183.432 76.4318L181.558 77.1293C182.67 80.1185 184.279 82.7491 186.389 84.9997L187.848 83.6318L189.307 82.2639C187.577 80.4185 186.242 78.2492 185.306 75.7343L183.432 76.4318ZM187.848 83.6318L186.411 85.0227C188.518 87.2004 190.981 88.8886 193.786 90.0805L194.568 88.2398L195.35 86.3992C193.035 85.415 191.018 84.0313 189.285 82.241L187.848 83.6318ZM194.568 88.2398L193.802 90.0873C196.693 91.286 199.837 91.8718 203.208 91.8718V89.8718V87.8718C200.307 87.8718 197.691 87.3696 195.334 86.3923L194.568 88.2398ZM203.208 89.8718V91.8718C207.179 91.8718 210.694 91.267 213.692 89.9821L212.904 88.1438L212.116 86.3055C209.738 87.3246 206.789 87.8718 203.208 87.8718V89.8718ZM212.904 88.1438L213.676 89.9887C216.691 88.7268 219.25 86.9219 221.318 84.568L219.816 83.2478L218.314 81.9276C216.67 83.7977 214.621 85.2568 212.132 86.2989L212.904 88.1438ZM219.816 83.2478L218.402 84.662L227.234 93.494L228.648 92.0798L230.062 90.6656L221.23 81.8336L219.816 83.2478ZM228.648 92.0798L227.234 90.6656C224.286 93.6134 220.859 95.8997 216.937 97.5288L217.704 99.3758L218.471 101.223C222.869 99.3959 226.738 96.8182 230.062 93.494L228.648 92.0798ZM217.704 99.3758L216.937 97.5288C213.067 99.1361 208.506 99.9678 203.208 99.9678V101.968V103.968C208.918 103.968 214.021 103.072 218.471 101.223L217.704 99.3758ZM236.38 101.008H234.38V103.008H236.38V101.008ZM236.38 54.6398V52.6398H234.38V54.6398H236.38ZM248.956 54.6398H250.956V52.6398H248.956V54.6398ZM248.956 101.008V103.008H250.956V101.008H248.956ZM248.956 75.3758L247.847 77.0399L250.956 79.1128V75.3758H248.956ZM244.061 72.1118L242.071 71.9106L241.95 73.1082L242.951 73.7759L244.061 72.1118ZM249.053 58.6718L250.582 59.961L250.588 59.9537L250.594 59.9463L249.053 58.6718ZM267.005 54.8318L266.217 56.6701L266.245 56.6821L266.273 56.6933L267.005 54.8318ZM271.901 58.3838L273.408 59.6985L274.563 58.3746L273.398 57.0587L271.901 58.3838ZM264.029 67.4078L262.554 68.7593L264.065 70.4079L265.536 68.7225L264.029 67.4078ZM261.436 65.6798L260.694 67.5368L260.714 67.5448L260.734 67.5525L261.436 65.6798ZM236.38 101.008H238.38V54.6398H236.38H234.38V101.008H236.38ZM236.38 54.6398V56.6398H248.956V54.6398V52.6398H236.38V54.6398ZM248.956 54.6398H246.956V101.008H248.956H250.956V54.6398H248.956ZM248.956 101.008V99.0078H236.38V101.008V103.008H248.956V101.008ZM248.956 75.3758L250.066 73.7117L245.17 70.4477L244.061 72.1118L242.951 73.7759L247.847 77.0399L248.956 75.3758ZM244.061 72.1118L246.05 72.313C246.599 66.8838 248.164 62.828 250.582 59.961L249.053 58.6718L247.523 57.3826C244.437 61.0436 242.674 65.9478 242.071 71.9106L244.061 72.1118ZM249.053 58.6718L250.594 59.9463C252.889 57.1707 256.237 55.6798 260.957 55.6798V53.6798V51.6798C255.308 51.6798 250.72 53.5169 247.511 57.3973L249.053 58.6718ZM260.957 53.6798V55.6798C262.966 55.6798 264.708 56.0235 266.217 56.6701L267.005 54.8318L267.792 52.9935C265.717 52.1041 263.427 51.6798 260.957 51.6798V53.6798ZM267.005 54.8318L266.273 56.6933C267.729 57.265 269.108 58.2453 270.403 59.709L271.901 58.3838L273.398 57.0587C271.749 55.1943 269.865 53.8066 267.736 52.9703L267.005 54.8318ZM271.901 58.3838L270.393 57.0691L262.521 66.0931L264.029 67.4078L265.536 68.7225L273.408 59.6985L271.901 58.3838ZM264.029 67.4078L265.503 66.0564C264.575 65.0447 263.442 64.296 262.139 63.8072L261.436 65.6798L260.734 67.5525C261.479 67.8316 262.074 68.2349 262.554 68.7593L264.029 67.4078ZM261.436 65.6798L262.179 63.8229C260.934 63.3248 259.552 63.1038 258.077 63.1038V65.1038V67.1038C259.161 67.1038 260.019 67.2668 260.694 67.5368L261.436 65.6798ZM258.077 65.1038V63.1038C254.916 63.1038 252.181 64.1393 250.038 66.2816L251.452 67.6958L252.867 69.11C254.18 67.7964 255.861 67.1038 258.077 67.1038V65.1038ZM251.452 67.6958L250.038 66.2816C247.854 68.4655 246.956 71.6371 246.956 75.3758H248.956H250.956C250.956 72.2025 251.723 70.2541 252.867 69.11L251.452 67.6958ZM284.125 98.7998L283.114 100.525L283.132 100.535L283.149 100.545L284.125 98.7998ZM275.198 90.0638L273.472 91.0752L273.482 91.0929L273.493 91.1103L275.198 90.0638ZM275.198 65.4878L276.907 66.5258L276.911 66.5191L276.915 66.5124L275.198 65.4878ZM284.125 56.8478L285.102 58.5933L285.113 58.5871L285.124 58.5807L284.125 56.8478ZM309.374 56.8478L308.362 58.5732L308.38 58.5834L308.397 58.5933L309.374 56.8478ZM318.302 65.4878L316.584 66.5124L316.588 66.5191L316.592 66.5258L318.302 65.4878ZM318.302 90.0638L320.019 91.0884L320.023 91.0818L320.027 91.0752L318.302 90.0638ZM309.374 98.7998L310.363 100.538L310.372 100.533L309.374 98.7998ZM302.941 88.7198L303.934 90.4563L303.943 90.4508L303.953 90.4452L302.941 88.7198ZM307.165 84.3038L305.401 83.3626L305.395 83.3738L305.389 83.385L307.165 84.3038ZM302.941 67.0238L301.904 68.7334L301.926 68.7471L301.949 68.7603L302.941 67.0238ZM290.557 67.0238L291.55 68.7603L291.573 68.7471L291.595 68.7334L290.557 67.0238ZM286.333 71.3438L288.085 72.31V72.31L286.333 71.3438ZM286.333 84.3038L284.569 85.245L284.575 85.2575L284.582 85.27L286.333 84.3038ZM290.557 88.7198L289.52 90.4294L289.542 90.4431L289.565 90.4563L290.557 88.7198ZM296.798 101.968V99.9678C292.439 99.9678 288.556 98.9862 285.102 97.0543L284.125 98.7998L283.149 100.545C287.247 102.837 291.812 103.968 296.798 103.968V101.968ZM284.125 98.7998L285.137 97.0744C281.707 95.0635 278.969 92.3841 276.902 89.0173L275.198 90.0638L273.493 91.1103C275.906 95.0396 279.12 98.1841 283.114 100.525L284.125 98.7998ZM275.198 90.0638L276.923 89.0524C274.937 85.6645 273.934 81.889 273.934 77.6798H271.934H269.934C269.934 82.5586 271.106 87.0391 273.472 91.0752L275.198 90.0638ZM271.934 77.6798H273.934C273.934 73.4701 274.937 69.7708 276.907 66.5258L275.198 65.4878L273.488 64.4499C271.106 68.3728 269.934 72.8015 269.934 77.6798H271.934ZM275.198 65.4878L276.915 66.5124C278.908 63.1713 281.626 60.5375 285.102 58.5933L284.125 56.8478L283.149 55.1023C279.073 57.3821 275.839 60.5083 273.48 64.4633L275.198 65.4878ZM284.125 56.8478L285.124 58.5807C288.579 56.5898 292.423 55.5838 296.702 55.5838V53.5838V51.5838C291.764 51.5838 287.224 52.7538 283.127 55.115L284.125 56.8478ZM296.702 53.5838V55.5838C301.119 55.5838 304.987 56.5948 308.362 58.5732L309.374 56.8478L310.385 55.1224C306.336 52.7489 301.756 51.5838 296.702 51.5838V53.5838ZM309.374 56.8478L308.397 58.5933C311.873 60.5375 314.591 63.1713 316.584 66.5124L318.302 65.4878L320.019 64.4633C317.66 60.5083 314.426 57.3821 310.35 55.1023L309.374 56.8478ZM318.302 65.4878L316.592 66.5258C318.562 69.7708 319.565 73.4701 319.565 77.6798H321.565H323.565C323.565 72.8015 322.393 68.3728 320.011 64.4499L318.302 65.4878ZM321.565 77.6798H319.565C319.565 81.889 318.562 85.6645 316.576 89.0524L318.302 90.0638L320.027 91.0752C322.393 87.0391 323.565 82.5586 323.565 77.6798H321.565ZM318.302 90.0638L316.584 89.0393C314.588 92.3857 311.863 95.0571 308.375 97.067L309.374 98.7998L310.372 100.533C314.436 98.1906 317.663 95.0379 320.019 91.0884L318.302 90.0638ZM309.374 98.7998L308.384 97.0615C305.002 98.9862 301.156 99.9678 296.798 99.9678V101.968V103.968C301.783 103.968 306.321 102.837 310.363 100.538L309.374 98.7998ZM296.702 90.2558V92.2558C299.366 92.2558 301.797 91.6771 303.934 90.4563L302.941 88.7198L301.949 86.9833C300.502 87.8106 298.773 88.2558 296.702 88.2558V90.2558ZM302.941 88.7198L303.953 90.4452C306.125 89.172 307.803 87.4247 308.942 85.2227L307.165 84.3038L305.389 83.385C304.608 84.8949 303.47 86.0916 301.93 86.9944L302.941 88.7198ZM307.165 84.3038L308.93 85.245C310.126 83.0026 310.702 80.4969 310.702 77.7758H308.702H306.702C306.702 79.9188 306.253 81.765 305.401 83.3626L307.165 84.3038ZM308.702 77.7758H310.702C310.702 75.0562 310.127 72.5706 308.917 70.3777L307.165 71.3438L305.414 72.31C306.252 73.829 306.702 75.6314 306.702 77.7758H308.702ZM307.165 71.3438L308.917 70.3777C307.72 68.2092 306.054 66.4987 303.934 65.2873L302.941 67.0238L301.949 68.7603C303.413 69.597 304.563 70.7664 305.414 72.31L307.165 71.3438ZM302.941 67.0238L303.979 65.3142C301.836 64.0126 299.387 63.3918 296.702 63.3918V65.3918V67.3918C298.752 67.3918 300.464 67.8591 301.904 68.7334L302.941 67.0238ZM296.702 65.3918V63.3918C294.069 63.3918 291.655 64.0177 289.52 65.3142L290.557 67.0238L291.595 68.7334C293.044 67.8539 294.726 67.3918 296.702 67.3918V65.3918ZM290.557 67.0238L289.565 65.2873C287.445 66.4987 285.779 68.2092 284.582 70.3777L286.333 71.3438L288.085 72.31C288.936 70.7664 290.086 69.597 291.55 68.7603L290.557 67.0238ZM286.333 71.3438L284.582 70.3777C283.372 72.5706 282.797 75.0562 282.797 77.7758H284.797H286.797C286.797 75.6314 287.247 73.829 288.085 72.31L286.333 71.3438ZM284.797 77.7758H282.797C282.797 80.4969 283.373 83.0026 284.569 85.245L286.333 84.3038L288.098 83.3626C287.246 81.765 286.797 79.9188 286.797 77.7758H284.797ZM286.333 84.3038L284.582 85.27C285.773 87.4282 287.426 89.158 289.52 90.4294L290.557 88.7198L291.595 87.0102C290.105 86.1056 288.942 84.8914 288.085 83.3377L286.333 84.3038ZM290.557 88.7198L289.565 90.4563C291.693 91.6724 294.091 92.2558 296.702 92.2558V90.2558V88.2558C294.704 88.2558 293.006 87.8152 291.55 86.9833L290.557 88.7198ZM329.662 101.008H327.662V103.008H329.662V101.008ZM329.662 54.6398V52.6398H327.662V54.6398H329.662ZM342.238 54.6398H344.238V52.6398H342.238V54.6398ZM342.238 101.008V103.008H344.238V101.008H342.238ZM359.902 101.008H357.902V103.008H359.902V101.008ZM357.31 67.4078L355.953 68.8774L355.982 68.9044L356.013 68.9303L357.31 67.4078ZM346.558 66.1598L347.418 67.9655L347.452 67.9492L347.486 67.9315L346.558 66.1598ZM343.39 69.0398L345.105 70.0688V70.0688L343.39 69.0398ZM342.238 73.6478L341.357 75.4436L344.238 76.8556V73.6478H342.238ZM337.342 71.2478H335.342V72.4948L336.461 73.0437L337.342 71.2478ZM339.646 61.9358L337.938 60.8946L337.929 60.9099L337.92 60.9255L339.646 61.9358ZM346.078 55.8878L347.006 57.6595L347.022 57.6509L347.038 57.642L346.078 55.8878ZM363.934 55.8878L362.955 57.6321L362.972 57.6413L362.988 57.6501L363.934 55.8878ZM370.174 61.9358L368.448 62.9462L368.453 62.9555L368.459 62.9648L370.174 61.9358ZM372.478 101.008V103.008H374.478V101.008H372.478ZM390.142 101.008H388.142V103.008H390.142V101.008ZM387.55 67.4078L386.193 68.8774L386.222 68.9044L386.253 68.9303L387.55 67.4078ZM376.798 66.1598L377.658 67.9655L377.675 67.9573L377.692 67.9487L376.798 66.1598ZM373.63 69.0398L375.345 70.0688V70.0688L373.63 69.0398ZM372.478 73.6478L372.011 75.5926L374.478 76.1846V73.6478H372.478ZM365.278 71.9198L363.283 71.7822L363.166 73.4698L364.811 73.8646L365.278 71.9198ZM368.254 62.3198L369.936 63.4013L369.942 63.3924L369.948 63.3833L368.254 62.3198ZM375.07 55.9838L375.996 57.7563L376.012 57.7481L376.027 57.7396L375.07 55.9838ZM393.79 55.8878L392.846 57.6514L392.863 57.66L392.879 57.6683L393.79 55.8878ZM400.318 62.0318L398.599 63.0548V63.0548L400.318 62.0318ZM402.718 101.008V103.008H404.718V101.008H402.718ZM329.662 101.008H331.662V54.6398H329.662H327.662V101.008H329.662ZM329.662 54.6398V56.6398H342.238V54.6398V52.6398H329.662V54.6398ZM342.238 54.6398H340.238V101.008H342.238H344.238V54.6398H342.238ZM342.238 101.008V99.0078H329.662V101.008V103.008H342.238V101.008ZM359.902 101.008H361.902V73.6478H359.902H357.902V101.008H359.902ZM359.902 73.6478H361.902C361.902 70.4929 360.864 67.8083 358.607 65.8853L357.31 67.4078L356.013 68.9303C357.211 69.9513 357.902 71.4267 357.902 73.6478H359.902ZM357.31 67.4078L358.666 65.9382C356.594 64.0252 354.013 63.1038 351.07 63.1038V65.1038V67.1038C353.119 67.1038 354.698 67.7185 355.953 68.8774L357.31 67.4078ZM351.07 65.1038V63.1038C349.114 63.1038 347.287 63.52 345.63 64.3881L346.558 66.1598L347.486 67.9315C348.516 67.3916 349.697 67.1038 351.07 67.1038V65.1038ZM346.558 66.1598L345.698 64.3541C343.998 65.1637 342.645 66.3944 341.675 68.0108L343.39 69.0398L345.105 70.0688C345.671 69.1252 346.43 68.4359 347.418 67.9655L346.558 66.1598ZM343.39 69.0398L341.675 68.0108C340.686 69.6588 340.238 71.5663 340.238 73.6478H342.238H344.238C344.238 72.1453 344.558 70.9808 345.105 70.0688L343.39 69.0398ZM342.238 73.6478L343.118 71.852L338.222 69.452L337.342 71.2478L336.461 73.0437L341.357 75.4436L342.238 73.6478ZM337.342 71.2478H339.342C339.342 67.955 340.045 65.2128 341.372 62.9462L339.646 61.9358L337.92 60.9255C336.175 63.9068 335.342 67.3726 335.342 71.2478H337.342ZM339.646 61.9358L341.353 62.977C342.767 60.6585 344.643 58.8969 347.006 57.6595L346.078 55.8878L345.15 54.1161C342.136 55.6947 339.724 57.9651 337.938 60.8946L339.646 61.9358ZM346.078 55.8878L347.038 57.642C349.401 56.348 352.105 55.6798 355.198 55.6798V53.6798V51.6798C351.507 51.6798 348.13 52.4836 345.117 54.1336L346.078 55.8878ZM355.198 53.6798V55.6798C358.078 55.6798 360.649 56.3384 362.955 57.6321L363.934 55.8878L364.912 54.1435C361.97 52.4932 358.718 51.6798 355.198 51.6798V53.6798ZM363.934 55.8878L362.988 57.6501C365.281 58.8803 367.094 60.6328 368.448 62.9462L370.174 61.9358L371.9 60.9255C370.182 57.9908 367.835 55.7114 364.879 54.1255L363.934 55.8878ZM370.174 61.9358L368.459 62.9648C369.771 65.1516 370.478 67.882 370.478 71.2478H372.478H374.478C374.478 67.3177 373.649 63.84 371.889 60.9068L370.174 61.9358ZM372.478 71.2478H370.478V101.008H372.478H374.478V71.2478H372.478ZM372.478 101.008V99.0078H359.902V101.008V103.008H372.478V101.008ZM390.142 101.008H392.142V73.6478H390.142H388.142V101.008H390.142ZM390.142 73.6478H392.142C392.142 70.4929 391.104 67.8083 388.847 65.8853L387.55 67.4078L386.253 68.9303C387.451 69.9513 388.142 71.4267 388.142 73.6478H390.142ZM387.55 67.4078L388.906 65.9382C386.834 64.0252 384.253 63.1038 381.31 63.1038V65.1038V67.1038C383.359 67.1038 384.938 67.7185 386.193 68.8774L387.55 67.4078ZM381.31 65.1038V63.1038C379.405 63.1038 377.594 63.5258 375.903 64.371L376.798 66.1598L377.692 67.9487C378.818 67.3859 380.015 67.1038 381.31 67.1038V65.1038ZM376.798 66.1598L375.938 64.3541C374.238 65.1637 372.885 66.3944 371.915 68.0108L373.63 69.0398L375.345 70.0688C375.911 69.1252 376.67 68.4359 377.658 67.9655L376.798 66.1598ZM373.63 69.0398L371.915 68.0108C370.926 69.6588 370.478 71.5663 370.478 73.6478H372.478H374.478C374.478 72.1453 374.798 70.9808 375.345 70.0688L373.63 69.0398ZM372.478 73.6478L372.944 71.703L365.745 69.975L365.278 71.9198L364.811 73.8646L372.011 75.5926L372.478 73.6478ZM365.278 71.9198L367.273 72.0574C367.51 68.6258 368.418 65.7626 369.936 63.4013L368.254 62.3198L366.571 61.2383C364.633 64.253 363.558 67.7898 363.283 71.7822L365.278 71.9198ZM368.254 62.3198L369.948 63.3833C371.492 60.9243 373.502 59.0602 375.996 57.7563L375.07 55.9838L374.143 54.2114C371.006 55.8514 368.472 58.2113 366.56 61.2563L368.254 62.3198ZM375.07 55.9838L376.027 57.7396C378.527 56.3761 381.33 55.6798 384.478 55.6798V53.6798V51.6798C380.714 51.6798 377.244 52.5195 374.112 54.228L375.07 55.9838ZM384.478 53.6798V55.6798C387.641 55.6798 390.415 56.3507 392.846 57.6514L393.79 55.8878L394.733 54.1242C391.661 52.4809 388.227 51.6798 384.478 51.6798V53.6798ZM393.79 55.8878L392.879 57.6683C395.291 58.9027 397.189 60.6862 398.599 63.0548L400.318 62.0318L402.036 61.0088C400.246 58.0014 397.792 55.6889 394.701 54.1073L393.79 55.8878ZM400.318 62.0318L398.599 63.0548C399.983 65.3799 400.718 68.2122 400.718 71.6318H402.718H404.718C404.718 67.6274 403.852 64.0597 402.036 61.0088L400.318 62.0318ZM402.718 71.6318H400.718V101.008H402.718H404.718V71.6318H402.718ZM402.718 101.008V99.0078H390.142V101.008V103.008H402.718V101.008ZM420.88 98.7998L419.823 100.498V100.498L420.88 98.7998ZM412.912 90.1598L414.682 89.2283L412.912 90.1598ZM412.912 65.4878L414.682 66.4193V66.4193L412.912 65.4878ZM420.88 56.8478L421.937 58.5456V58.5456L420.88 56.8478ZM447.472 61.3598L445.781 62.4278L445.797 62.4539L445.815 62.4795L447.472 61.3598ZM450.064 69.4238H452.064V69.3813L452.062 69.3388L450.064 69.4238ZM450.064 86.1278L452.062 86.2111L452.064 86.1695V86.1278H450.064ZM447.472 94.2878L445.815 93.1681L445.804 93.1837L445.794 93.1994L447.472 94.2878ZM441.232 99.9518L442.143 101.732L442.161 101.723L442.177 101.714L441.232 99.9518ZM443.152 86.8958L444.606 88.2691L444.615 88.2591L444.624 88.2491L443.152 86.8958ZM444.88 71.3438L443.091 72.2382L443.109 72.2745L443.129 72.31L444.88 71.3438ZM440.752 66.9278L439.686 68.6203L439.722 68.6431L439.759 68.6643L440.752 66.9278ZM428.464 66.9278L429.483 68.6484L429.493 68.6429L429.502 68.6374L428.464 66.9278ZM424.336 71.3438L422.571 70.4026L422.565 70.4138L422.559 70.425L424.336 71.3438ZM424.336 84.3998L422.547 85.2942L422.565 85.3305L422.585 85.366L424.336 84.3998ZM428.464 88.8158L427.398 90.5083L427.434 90.5311L427.471 90.5523L428.464 88.8158ZM445.744 101.008H443.744V103.008H445.744V101.008ZM445.744 88.5278L443.775 88.1774L443.744 88.3512V88.5278H445.744ZM447.76 77.1998L449.729 77.5502L449.792 77.1968L449.728 76.8435L447.76 77.1998ZM445.744 66.0638H443.744V66.2434L443.776 66.4201L445.744 66.0638ZM445.744 54.6398V52.6398H443.744V54.6398H445.744ZM458.224 54.6398H460.224V52.6398H458.224V54.6398ZM458.224 101.008V103.008H460.224V101.008H458.224ZM432.304 101.968V99.9678C428.431 99.9678 424.993 99.005 421.937 97.102L420.88 98.7998L419.823 100.498C423.55 102.819 427.728 103.968 432.304 103.968V101.968ZM420.88 98.7998L421.937 97.102C418.856 95.1838 416.442 92.5726 414.682 89.2283L412.912 90.1598L411.142 91.0913C413.222 95.0431 416.119 98.1918 419.823 100.498L420.88 98.7998ZM412.912 90.1598L414.682 89.2283C412.928 85.896 412.032 82.1251 412.032 77.8718H410.032H408.032C408.032 82.7066 409.056 87.1276 411.142 91.0913L412.912 90.1598ZM410.032 77.8718H412.032C412.032 73.5496 412.93 69.7476 414.682 66.4193L412.912 65.4878L411.142 64.5563C409.054 68.524 408.032 72.978 408.032 77.8718H410.032ZM412.912 65.4878L414.682 66.4193C416.442 63.0751 418.856 60.4638 421.937 58.5456L420.88 56.8478L419.823 55.15C416.119 57.4558 413.222 60.6046 411.142 64.5563L412.912 65.4878ZM420.88 56.8478L421.937 58.5456C424.993 56.6426 428.431 55.6798 432.304 55.6798V53.6798V51.6798C427.728 51.6798 423.55 52.829 419.823 55.15L420.88 56.8478ZM432.304 53.6798V55.6798C435.356 55.6798 438.013 56.2941 440.32 57.4759L441.232 55.6958L442.143 53.9157C439.203 52.4095 435.908 51.6798 432.304 51.6798V53.6798ZM441.232 55.6958L440.32 57.4759C442.634 58.6609 444.441 60.3065 445.781 62.4278L447.472 61.3598L449.163 60.2918C447.431 57.5491 445.078 55.4188 442.143 53.9157L441.232 55.6958ZM447.472 61.3598L445.815 62.4795C447.196 64.5241 447.952 66.85 448.066 69.5088L450.064 69.4238L452.062 69.3388C451.919 65.9817 450.947 62.9315 449.129 60.2401L447.472 61.3598ZM450.064 69.4238H448.064V86.1278H450.064H452.064V69.4238H450.064ZM450.064 86.1278L448.065 86.0445C447.952 88.7753 447.191 91.1307 445.815 93.1681L447.472 94.2878L449.129 95.4075C450.952 92.709 451.92 89.6243 452.062 86.2111L450.064 86.1278ZM447.472 94.2878L445.794 93.1994C444.451 95.269 442.63 96.9318 440.286 98.1895L441.232 99.9518L442.177 101.714C445.081 100.156 447.42 98.0426 449.15 95.3762L447.472 94.2878ZM441.232 99.9518L440.32 98.1717C438.013 99.3535 435.356 99.9678 432.304 99.9678V101.968V103.968C435.908 103.968 439.203 103.238 442.143 101.732L441.232 99.9518ZM434.608 90.3518V92.3518C438.611 92.3518 442.008 91.0196 444.606 88.2691L443.152 86.8958L441.698 85.5226C439.943 87.3801 437.645 88.3518 434.608 88.3518V90.3518ZM443.152 86.8958L444.624 88.2491C447.192 85.4553 448.416 81.9064 448.416 77.7758H446.416H444.416C444.416 81.0693 443.464 83.6003 441.679 85.5426L443.152 86.8958ZM446.416 77.7758H448.416C448.416 75.0562 447.841 72.5706 446.631 70.3777L444.88 71.3438L443.129 72.31C443.967 73.829 444.416 75.6314 444.416 77.7758H446.416ZM444.88 71.3438L446.669 70.4494C445.539 68.1912 443.893 66.4194 441.744 65.1913L440.752 66.9278L439.759 68.6643C441.194 69.4843 442.3 70.6564 443.091 72.2382L444.88 71.3438ZM440.752 66.9278L441.817 65.2353C439.722 63.916 437.291 63.2958 434.608 63.2958V65.2958V67.2958C436.66 67.2958 438.325 67.7636 439.686 68.6203L440.752 66.9278ZM434.608 65.2958V63.2958C431.975 63.2958 429.561 63.9217 427.426 65.2182L428.464 66.9278L429.502 68.6374C430.95 67.7579 432.632 67.2958 434.608 67.2958V65.2958ZM428.464 66.9278L427.444 65.2072C425.375 66.4334 423.753 68.1874 422.571 70.4026L424.336 71.3438L426.1 72.285C426.967 70.6602 428.097 69.4702 429.483 68.6484L428.464 66.9278ZM424.336 71.3438L422.559 70.425C421.43 72.6082 420.896 75.0765 420.896 77.7758H422.896H424.896C424.896 75.6111 425.321 73.7914 426.112 72.2627L424.336 71.3438ZM422.896 77.7758H420.896C420.896 80.5318 421.427 83.0546 422.547 85.2942L424.336 84.3998L426.125 83.5054C425.324 81.905 424.896 80.0118 424.896 77.7758H422.896ZM424.336 84.3998L422.585 85.366C423.766 87.5064 425.373 89.233 427.398 90.5083L428.464 88.8158L429.529 87.1233C428.099 86.2226 426.954 85.0052 426.087 83.4337L424.336 84.3998ZM428.464 88.8158L427.471 90.5523C429.6 91.7684 431.997 92.3518 434.608 92.3518V90.3518V88.3518C432.61 88.3518 430.912 87.9112 429.456 87.0793L428.464 88.8158ZM445.744 101.008H447.744V88.5278H445.744H443.744V101.008H445.744ZM445.744 88.5278L447.713 88.8782L449.729 77.5502L447.76 77.1998L445.791 76.8494L443.775 88.1774L445.744 88.5278ZM447.76 77.1998L449.728 76.8435L447.712 65.7075L445.744 66.0638L443.776 66.4201L445.792 77.5561L447.76 77.1998ZM445.744 66.0638H447.744V54.6398H445.744H443.744V66.0638H445.744ZM445.744 54.6398V56.6398H458.224V54.6398V52.6398H445.744V54.6398ZM458.224 54.6398H456.224V101.008H458.224H460.224V54.6398H458.224ZM458.224 101.008V99.0078H445.744V101.008V103.008H458.224V101.008Z" fill="black" mask="url(#path-6-outside-1_395_475)"/>
<defs>
<linearGradient id="paint0_linear_395_475" x1="188.703" y1="1.29754" x2="393.511" y2="45.7694" gradientUnits="userSpaceOnUse">
<stop stop-color="#FF8800"/>
<stop offset="0.131098" stop-color="#FFEB7C"/>
</linearGradient>
<linearGradient id="paint1_linear_395_475" x1="189.874" y1="34.8433" x2="395.462" y2="76.9759" gradientUnits="userSpaceOnUse">
<stop stop-color="#E67B01"/>
<stop offset="0.408937" stop-color="#FFEB7C"/>
</linearGradient>
<linearGradient id="paint2_linear_395_475" x1="195.725" y1="36.4072" x2="396.241" y2="104.286" gradientUnits="userSpaceOnUse">
<stop offset="0.125" stop-color="#FF8D0A"/>
<stop offset="0.576923" stop-color="#F9E88B"/>
</linearGradient>
<linearGradient id="paint3_linear_395_475" x1="198.847" y1="135.778" x2="414.577" y2="135.778" gradientUnits="userSpaceOnUse">
<stop offset="0.182692" stop-color="#FF8800"/>
<stop offset="0.581731" stop-color="#FFD88F"/>
</linearGradient>
<linearGradient id="paint4_linear_395_475" x1="198.846" y1="157.434" x2="414.577" y2="157.435" gradientUnits="userSpaceOnUse">
<stop offset="0.344995" stop-color="#FF8800"/>
<stop offset="0.865385" stop-color="#FFDD9E"/>
</linearGradient>
</defs>
</svg>
